<?xml version="1.0" encoding="UTF-8"?>
<svg id="Layer_1" data-name="Layer 1" xmlns="http://www.w3.org/2000/svg" xmlns:xlink="http://www.w3.org/1999/xlink" viewBox="0 0 500 500">
  <defs>
    <style>
      .cls-1 {
        fill: #aa3b50;
      }

      .cls-1, .cls-2, .cls-3, .cls-4, .cls-5, .cls-6, .cls-7, .cls-8 {
        stroke-width: 0px;
      }

      .cls-2 {
        fill: #dce0e2;
      }

      .cls-3 {
        fill: #f4dac1;
      }

      .cls-4 {
        fill: url(#linear-gradient);
      }

      .cls-5 {
        fill: #000;
      }

      .cls-6 {
        fill: #d15d76;
      }

      .cls-7 {
        fill: url(#linear-gradient-2);
      }

      .cls-8 {
        fill: #efd0b6;
      }
    </style>
    <linearGradient id="linear-gradient" x1="201.01" y1="331.14" x2="201.01" y2="97.74" gradientUnits="userSpaceOnUse">
      <stop offset="0" stop-color="#94bee5"/>
      <stop offset=".21" stop-color="#b3c7e7"/>
      <stop offset=".7" stop-color="#51afe2"/>
      <stop offset="1" stop-color="#4583c4"/>
    </linearGradient>
    <linearGradient id="linear-gradient-2" x1="283.62" y1="327.35" x2="283.62" y2="140.55" xlink:href="#linear-gradient"/>
  </defs>
  <g>
    <path class="cls-3" d="M450.59,270.71c.11-3.89-1.86-7.6-4.55-10.41s-6.06-4.85-9.39-6.86c-7.49-4.51-15.31-9.14-24.01-9.97-1.16-.11-2.37-.14-3.42.35-1.77.83-2.58,2.94-2.66,4.9-.21,5.33,3.65,9.85,7.28,13.77,7.24,7.81,14.47,15.63,21.71,23.44"/>
    <path class="cls-5" d="M453.09,270.71c.08-7.71-5.66-13.35-11.68-17.26s-12.84-8.03-19.88-10.51c-1.7-.6-3.44-1.09-5.21-1.44s-3.79-.73-5.64-.56c-4.03.38-6.29,3.6-6.59,7.43-.59,7.43,5.59,13.29,10.19,18.26,6.5,7.02,13,14.04,19.51,21.06,2.19,2.37,5.72-1.18,3.54-3.54-5.09-5.49-10.18-10.99-15.27-16.48-2.47-2.66-4.97-5.31-7.4-8-1.9-2.1-3.83-4.38-4.89-7.04-.65-1.64-1.53-5.27.37-6.5.89-.57,2.6-.19,3.56-.05,1.71.25,3.41.67,5.06,1.18,6.08,1.89,11.58,5.27,17,8.54s12.41,7.65,12.33,14.89c-.04,3.22,4.96,3.22,5,0h0Z"/>
  </g>
  <g>
    <path class="cls-3" d="M96.61,471.88c-6.53-15.41-15.66-43.83-19.36-60.16-3.7-16.33-4.42-33.68.7-49.62,6.56-20.42,22.09-36.97,29.01-57.28,4.91-14.42,5.17-30.38.74-44.95-1.39-4.56-3.23-9.05-3.69-13.79-.39-4.01.23-8.07,1.35-11.94,2.13-7.35,6.27-14.36,12.65-18.58,10.32-6.83,24.84-5.52,34.26-13.54,1.25-1.07,2.43-2.36,2.82-3.96.83-3.42-2.18-6.58-5.25-8.31-13.76-7.78-31.62-1.81-43.76,8.31-12.14,10.12-20.75,23.84-32.16,34.77-4.44,4.25-9.33,8.11-13.08,12.98-3.31,4.29-5.64,9.24-7.94,14.15-11.46,24.42-22.95,48.97-30.27,74.93-7.32,25.96-18.91,105.85-13.14,132.2,0,0-.83,10.89,43.14,10.89s43.97-6.1,43.97-6.1Z"/>
    <path class="cls-5" d="M98.77,470.62c-5.28-12.49-9.49-25.49-13.4-38.46-4.28-14.19-8.27-28.62-8.56-43.53-.17-8.57.83-17.15,3.39-25.35,2.38-7.6,6.1-14.68,10.09-21.55,7.99-13.75,17.24-27.09,20.97-42.79,2.03-8.55,2.6-17.49,1.6-26.22-.48-4.22-1.27-8.41-2.45-12.49s-2.93-8.35-3.7-12.71c-1.38-7.86,1.48-16.66,5.92-23.13,4.12-6.01,10.16-9.12,17.01-11.06s13.89-3.02,20.1-6.51c3.16-1.78,6.82-4.38,7.77-8.08,1.06-4.14-1.71-7.85-4.88-10.15-5.8-4.21-13.73-5.44-20.71-4.66-7.44.83-14.57,3.57-20.9,7.52-13.78,8.6-22.88,22.57-33.68,34.33-2.83,3.09-5.84,5.97-8.94,8.79s-6.09,5.51-8.68,8.69c-5.61,6.9-8.95,15.39-12.68,23.38-12.45,26.68-24.47,53.82-30.37,82.8-4.72,23.17-7.95,46.76-9.91,70.32-.9,10.82-1.55,21.7-1.25,32.56.12,4.3.41,8.6,1.09,12.85.12.78.19,1.65.44,2.4,0-.03-.1-.69-.05-.39.07.42.08.85.19,1.26,1.06,3.85,5.3,6.03,8.68,7.4,3.76,1.52,7.77,2.38,11.76,3,7.01,1.09,14.12,1.5,21.21,1.61,12.71.19,25.79.11,38.35-2.1,3.49-.61,8.3-1.34,10.87-4.1.6-.65,1.04-1.47,1.05-2.37.03-3.22-4.97-3.22-5,0,0-.6.05-.6.27-1.03-.33.65.52-.54-.03.05-.05.05-.16.11-.19.17-.18.31.62-.37.27-.21-.24.11-.46.3-.68.43-.27.15-.56.27-.83.42-.57.29.58-.2.02,0-.24.08-.48.18-.72.27-2.62.93-5.4,1.44-8.15,1.85-1.87.28-4.2.54-6.49.75-3.04.27-6.09.46-9.14.59-8.03.36-16.11.46-24.14.17-6.05-.22-12.13-.65-18.09-1.79-2.02-.39-4.02-.85-5.99-1.46-.79-.24-1.57-.51-2.33-.8-.18-.07-1.24-.52-.58-.23-.33-.14-.66-.29-.98-.45-.99-.48-1.91-1.05-2.82-1.68-.21-.15.48.43,0,0-.14-.13-.3-.25-.44-.39-.26-.25-.48-.55-.74-.8.45.44.17.26-.08-.16-.06-.1-.11-.21-.17-.3-.26-.39.12-.35.08.23.02-.22-.51-1.61-.14-.17-.1-.41-.1-.87-.18-1.29-.15-.81-.31-1.61-.44-2.42-.17-1.1-.16-1.03-.29-2.23-1.06-9.52-.74-19.22-.23-28.77,1.24-23.42,4.28-46.81,8.36-69.9,1.54-8.72,3.19-17.47,5.51-26.02,4.38-16.16,10.59-31.82,17.32-47.13,3.6-8.18,7.36-16.29,11.16-24.38,3.56-7.59,6.86-15.34,12.76-21.45,2.85-2.95,5.99-5.61,8.98-8.42s5.6-5.61,8.23-8.58c5.23-5.94,10.1-12.19,15.47-18.01,9.76-10.59,22.48-20.23,37.59-20.02,3.35.05,6.7.66,9.8,1.95,2.4,1,6.62,3.05,6.7,6.15.04,1.6-1.42,2.82-2.55,3.73-1.3,1.05-2.77,1.91-4.26,2.65-3.04,1.51-6.36,2.43-9.64,3.28-6.67,1.72-13.69,3.08-19.53,6.95-6.24,4.13-10.46,10.54-12.96,17.5-1.43,3.97-2.35,8.22-2.39,12.44-.05,4.45,1.14,8.71,2.51,12.9,2.67,8.14,4.43,16.25,4.44,24.85s-1.44,16.59-4.27,24.42c-2.6,7.17-6.32,13.88-10.19,20.43-8.02,13.58-16.91,26.94-20.24,42.62-3.42,16.11-1.68,32.66,2.31,48.49,3.33,13.21,7.46,26.26,11.99,39.1,2.01,5.72,4.14,11.4,6.5,16.98.53,1.24,2.36,1.52,3.42.9,1.29-.75,1.42-2.17.9-3.42Z"/>
  </g>
  <g>
    <path class="cls-3" d="M436.82,470.71c17.95-20.13,28.9-45.71,35.25-71.92s8.38-53.25,10.38-80.14c.4-5.4.8-10.86.02-16.22-.88-6.09-3.25-11.84-5.03-17.72-4.58-15.13-5.35-31.3-10.97-46.08-5.62-14.78-18.25-28.74-34.06-28.71-3.52,0-7.69,1.28-8.65,4.67-.45,1.59-.06,3.29.51,4.83,4.28,11.61,17.57,17.59,23.22,28.6,3.49,6.81,3.66,14.95,1.91,22.4-.92,3.92-2.37,7.77-4.68,11.07-2.73,3.91-6.54,6.91-9.98,10.21-11.01,10.53-18.61,24.56-21.4,39.54-3.94,21.09,1.48,43.13-2.82,64.14-3.35,16.4-12.49,31.17-23.73,43.58-11.23,12.41-24.57,22.71-37.82,32.93,0,0-.17,12.41,44.05,12.43,44.21.02,43.81-13.61,43.81-13.61Z"/>
    <path class="cls-5" d="M438.59,472.47c18.47-20.79,29.67-46.97,36.08-73.8,3.66-15.31,5.87-30.94,7.48-46.58.8-7.77,1.45-15.56,2.04-23.36s1.7-15.86,1.07-23.71-3.57-14.66-5.7-21.96c-2.08-7.12-3.35-14.43-4.72-21.71-2.53-13.45-5.6-27.06-14.11-38.13-7.01-9.11-18.34-17.23-30.45-15.67-2.96.38-5.92,1.49-7.75,3.96-2.15,2.9-1.54,6.49-.24,9.61,2.23,5.37,6.19,9.66,10.33,13.63s8.35,7.51,11.38,12.2c3.65,5.66,4.57,12.49,3.69,19.08-.45,3.38-1.33,6.86-2.75,9.97s-3.53,5.89-6.03,8.36-5.12,4.64-7.54,7.11-4.51,4.95-6.53,7.62c-8.29,10.98-13.29,24.06-14.85,37.69-1.73,15.07.38,30.22-.39,45.33-.37,7.31-1.56,14.49-3.91,21.42-2.15,6.33-5.17,12.34-8.73,17.99-7.58,12.03-17.64,22.22-28.38,31.45-5.66,4.86-11.52,9.48-17.41,14.04-1.29,1-2.82,1.92-3.98,3.07-.49.49-.73,1.13-.73,1.81,0,.36.07.75.16,1.1.68,2.8,3.02,4.95,5.32,6.48,5.6,3.73,12.79,5.08,19.32,5.98,12.87,1.77,26.27,1.91,39.18.46,7.48-.84,15.58-2.15,22.12-6.15,2.79-1.71,5.55-4.17,6.5-7.42.15-.53.28-1.12.26-1.67-.08-3.21-5.08-3.22-5,0,.01.5-.16.08.06-.28-.13.23-.19.71-.26.97-.17.62.36-.63-.05.1-.16.28-.3.56-.48.83-.08.12-.16.23-.24.34-.36.57.38-.4,0,0-.31.32-.58.67-.9.98s-.65.58-.98.86c-.45.39.44-.29-.23.17-.28.19-.55.38-.83.56-1.16.74-2.39,1.36-3.64,1.92-.59.26.33-.13-.05.02-.16.06-.32.13-.48.19-.4.16-.81.31-1.21.45-.98.35-1.96.66-2.96.94-2.22.63-4.49,1.11-6.77,1.5-6.34,1.09-12.81,1.44-19.24,1.53-7.23.11-14.5-.09-21.69-.91-4.51-.51-9.03-1.3-13.35-2.68-.74-.24-1.47-.49-2.2-.77-.17-.07-1.26-.52-.64-.25-.38-.16-.75-.33-1.12-.51-1.06-.51-2.07-1.11-3.04-1.77-.1-.07-.2-.15-.3-.22-.35-.24.51.44.04.03-.17-.14-.34-.28-.5-.43-.34-.3-.65-.62-.95-.95-.09-.1-.51-.64-.17-.2s-.04-.06-.11-.17c-.16-.25-.3-.52-.45-.77-.36-.61.16.69-.02-.05-.04-.16-.08-.34-.14-.49-.21-.56.03.79.03.24l-1.24,2.16c16.25-12.53,32.66-25.23,45.24-41.63,5.89-7.68,10.8-16.08,14.21-25.15,3.61-9.62,4.94-19.77,5.09-30.01.16-10.67-.74-21.33-.37-32,.34-9.75,2.01-19.37,5.88-28.37,3.64-8.45,8.88-16.19,15.43-22.65,3.59-3.54,7.57-6.66,10.62-10.72s4.81-8.92,5.79-13.81c1.89-9.39.75-19.31-5.1-27.13-4.85-6.48-11.62-11.15-16.62-17.48-1.15-1.45-2.15-3.03-2.97-4.68-.76-1.54-1.9-3.83-1.11-5.52,1.38-3,6.64-2.63,9.25-2.3,7.88,1.01,14.64,5.89,19.71,11.79,12.89,15,13.59,35.78,17.94,54.16,1.22,5.14,2.92,10.1,4.52,15.12s2.69,10.16,2.69,15.55c0,5.54-.58,11.09-1,16.61s-.85,10.98-1.33,16.47c-1.9,21.46-4.65,42.94-10.48,63.73-5.19,18.51-12.85,36.45-24,52.19-2.65,3.74-5.51,7.32-8.55,10.74-2.13,2.4,1.39,5.95,3.54,3.54Z"/>
  </g>
  <path class="cls-5" d="M399.62,104.02c4.7-.27,12.2-.69,18.09-1.17,8.27-.68,12.66,3.33,12.11,11.6-.26,3.96-1.1,7.87-1.66,11.81-.38,2.68-.02,4.27,3.48,4.51,8.8.6,14.9,6.75,15.98,15.49.17,1.37.19,2.4,1.81,3.09,10.94,4.67,11.65,13.21,10.44,22.31-2.26,17.08-4.59,34.16-6.91,51.23-2.24,16.49-4.55,32.97-6.77,49.47-1.93,14.31-3.73,28.63-5.66,42.94-1.66,12.26-3.04,24.57-5.24,36.73-2.09,11.58-12.76,16.57-23.65,11.84-12.94-5.61-25.46-12.19-38.91-16.62-23.75-7.83-47.94-10.7-72.81-7.03-11.07,1.64-22.18,3.03-33.28,4.45-3.18.41-6.18.19-9.37-1.15-17.19-7.2-33.94-15.55-52.05-20.42-24.2-6.5-48.58-7.25-73.19-2.62-7.37,1.39-14.82,2.45-22.26,3.43-9.53,1.26-18.26-7.01-17.68-17,.39-6.61,1.41-13.19,2.28-19.76,1.92-14.45,3.93-28.9,5.89-43.34,1.96-14.45,3.9-28.9,5.84-43.35,1.92-14.31,3.79-28.62,5.73-42.92,1.68-12.4,3.25-24.82,5.24-37.17,1.28-7.92,6.65-12.23,14.32-13.59,1.7-.3,2.39-.83,3.08-2.33,4-8.75,10-12.13,19.92-11.04,46.91,5.17,90.8,19.13,130.4,45.29,3.08,2.03,4.5,1.58,6.7-1.21,2.21-2.79,5.4-5.39,9.31-7.8,7.51-4.63,17.67-8.56,28.6-11.86,8.27-2.5,16.98-4.63,25.32-6.41,8.36-1.79,16.34-3.24,23.11-4.36,11.12-1.84,17.11-2.75,21.81-3.02Z"/>
  <path class="cls-4" d="M260.75,331.14c-12.69-8.05-25.46-15.27-38.87-21.33-25.63-11.57-52.31-19.37-80.24-22.85-5.25-.66-10.55-1.29-15.69-2.5-7.38-1.73-10.5-7.69-9.3-15.09,1.65-10.17,2.69-20.43,4.05-30.65,1.95-14.6,3.96-29.2,5.92-43.79,1.89-14.02,3.73-28.04,5.62-42.06,2.05-15.17,4.05-30.35,6.27-45.5.92-6.27,7.33-10.37,14.35-9.52,29.3,3.54,57.97,9.6,85.27,21.23,14.26,6.08,28,13.15,41.13,21.38,7.06,4.42,6.91,4.47,5.79,12.44-2.14,15.22-4.11,30.47-6.22,45.7-2.29,16.53-4.77,33.03-6.98,49.56-2.23,16.7-4.17,33.43-6.37,50.13-1.42,10.74-3.07,21.45-4.72,32.83Z"/>
  <path class="cls-2" d="M276.06,324.78c-9.61,6.36-4.48-7.96-2.18-14.86,2.3-6.9,2.3-6.33,1.86-17.76.45-9.26,4.77-11.26,5.82-20.52,1.88-16.69,4.11-33.34,6.31-50,1.91-14.46,4.01-28.9,5.95-43.36,1.9-14.17,3.82-28.34,5.47-42.53,7.32-8.09,55.43-24.35,96.74-26.79,8.12-.43,16.22-1.1,24.34-1.41,3.72-.14,5.41,2.46,5,5.83-1.43,11.85-3.13,23.66-4.71,35.49-1.97,14.75-3.91,29.51-5.87,44.26-1.9,14.32-3.78,28.64-5.68,42.95-1.94,14.6-4.07,29.19-5.79,43.82-.82,6.97-3.14,13.88-13.39,14.65-9.73.73-19.44,1.8-29.18,2.16-27.59,1.02-52.9,9.2-76.36,23.51-2.01,1.22-4.08,2.34-6.13,3.5-.35.2-.72.35-2.18,1.06Z"/>
  <path class="cls-2" d="M283.55,326.56c16.82-11.11,35.02-18.98,54.96-22.68,15.88-2.94,32-3.58,48.04-4.23,13.89-.56,20.17-8.41,21.35-19.21,2.56-23.57,6.3-47.02,9.42-70.53,3.1-23.37,6.05-46.76,9.03-70.14.6-4.69,1.57-5.42,6.27-4.28,7.81,1.9,11.23,7.53,10.12,15.49-2.37,16.92-4.4,33.9-6.67,50.84-2.21,16.5-4.56,32.98-6.8,49.47-1.9,14.02-3.73,28.04-5.61,42.06-.9,6.69-1.63,13.41-2.81,20.05-1.07,6.03-7.99,10.12-14.78,9.02-18.85-3.05-37.78-4.62-56.9-4.39-22.21.27-43.96,3.46-65.62,8.53Z"/>
  <path class="cls-2" d="M259.77,339.24c-13.02-5.35-25.95-10.94-39.09-16-20.75-7.98-42.39-11.21-64.55-10.32-14.15.57-28.06,3.43-42.02,5.69-3.37.55-6.78,1.06-10.06-.11-5.46-1.96-8.16-6.87-7.28-14.11,1.71-14.04,3.74-28.03,5.63-42.05,1.95-14.45,3.89-28.9,5.84-43.35,1.95-14.45,3.92-28.9,5.86-43.35,1.9-14.16,3.78-28.32,5.69-42.48.55-4.09.98-8.2,1.81-12.23,1.01-4.91,4.22-7.88,9.02-9.29,1.7-.5,2.58-.55,2.29,1.59-1.88,13.57-3.75,27.14-5.59,40.71-1.94,14.3-3.83,28.61-5.75,42.92-1.94,14.45-3.89,28.9-5.85,43.35-2.17,16.04-4.59,32.05-6.42,48.13-1.12,9.78,8.42,18.46,18.8,17.57,10.3-.89,20.56-1.93,30.93-2.09,32.27-.52,62.12,7.19,89.18,25.03,3.32,2.19,6.67,4.33,10.07,6.39,1.61.97,2.46,2.05,1.48,4.02Z"/>
  <path class="cls-2" d="M455.79,166.27c-1.36,10.22-2.71,20.45-4.09,30.67-1.93,14.31-3.88,28.61-5.82,42.92-1.97,14.6-3.95,29.2-5.91,43.8-1.9,14.17-3.75,28.34-5.66,42.5-1.1,8.18-2.09,16.37-3.48,24.5-1.5,8.77-9.09,12.58-17.29,8.99-12.38-5.42-24.44-11.56-37.21-16.11-20.98-7.49-42.64-10.61-64.78-9.24-12.92.81-25.75,3.08-38.63,4.69-1.61.2-3.24.53-4.84.44-1.11-.06-2.79,1.83-3.3-.41-.44-1.95,1.55-2.28,2.89-2.68,6.05-1.8,12.07-3.72,18.2-5.21,13.16-3.2,26.3-6.49,40.05-5.96,24.85.96,48.66,6.44,71.52,16.07,13.62,5.74,23.97.15,26.34-14.42,3.2-19.61,5.3-39.37,7.93-59.06,2.79-20.88,5.79-41.74,8.63-62.62,2.2-16.21,4.37-32.42,6.34-48.65.38-3.12,1.31-3.2,3.48-1.64,3.89,2.8,5.91,6.5,5.62,11.39Z"/>
  <path class="cls-2" d="M180.66,299.97c-11.05-1.07-22.11-.8-33.16-.45-4.99.16-10.06.39-14.94,1.37-14.58,2.94-21.04-6.96-17.48-17.99,6.78,8.5,16.74,7.03,25.63,8.44,13.48,2.14,26.86,4.56,39.94,8.63Z"/>
  <path class="cls-2" d="M418.89,324.14c1.04,10.57-7.61,17.75-16.93,13.9-16.17-6.69-32.73-11.91-49.96-15.1,9.93-.88,19.78.03,29.6,1.01,7.92.79,15.78,2.09,23.68,3,4.74.55,9.37-.07,13.6-2.81Z"/>
  <path class="cls-5" d="M264.73,330.84c2.23-15.86,1.61-24.53,3.71-40.2,1.79-13.36,3.63-27.08,5.44-40.44,2.12-15.72,4.41-32.09,6.52-47.82,2.11-15.74,5.05-28.54,7.03-44.3.64-5.09,1.29-8.65,2.11-13.71.25-1.52,4.06-5.18,5.05-6.34.9-1.6,2.09-3.84,6.2-4.61-2.36,6.17,1.21,3.45,4.81,7.14-4.04,9.91-2.11,8.5-.88,13.34-.48,3.63-7.74,21.36-3.93,27.4-1.82,13.91-1.65,11.13,2.46,23.21-3.96,4.98-5.28,1.29-7.98,7.45,1.41,7.93,3.07,3.79,3.45,8.93-1.46,5.96-5.39,15.11-5.26,20.25-.85,5.09.46,10.23-4.25,12.49-4.34,5.3.38,16.75-3.59,26.89-2.07,8.91-7.63,15.24-.85,20.91-.06,14.06-6.53,22.31-14.34,25.94-1.12,1.31-3.49,2.87-5.7,3.49Z"/>
  <path class="cls-7" d="M266.44,327.35c2.04-14.47,4.12-28.76,6.04-43.06,1.63-12.19,2.97-24.42,4.61-36.61,1.94-14.35,4.16-28.66,6.09-43.01,1.93-14.37,3.63-28.76,5.44-43.14.58-4.65,1.11-9.3,1.85-13.92.23-1.39.84-2.91,1.74-3.97,3.65-6.47,4.82-.61,8.57-1.31-2.15,5.63-4.69,8.2-1.41,11.57-.38,4.59-2.92,8.94-3.52,13.51-.43,3.32-1.88,10.55.23,14.53-1.66,12.7-2.34,9.85,1.41,20.86-3.61,4.55-5.39,2.81-7.85,8.44,1.29,7.23,3.4,6.09,3.75,10.78-1.33,5.44-5.98,15-5.86,19.69-.78,4.65.3,8.84-3.99,10.9-3.96,4.84,0,18.87-3.63,28.13-3.43,7.69-8.31,17.42.61,22.81-1.78,11.3-2.67,11.54-10.35,20.46-1.03,1.19-1.72,2.78-3.74,3.34Z"/>
  <g>
    <path class="cls-8" d="M246.72,155.52s2.11-.39,6.03.59,5.73,3.78,5.73,3.78l-.47,1.81.47,6.74,1.25,6.16,1.32,6.03-1.72,8.03-2.47,4.04s-3.46.37-3.57.37-4.72-.84-4.72-.84l-4.36-1.25-3.68,1.03-4.73,2.29-2.99.66-2.52,1.2-2.08-.52-2.26,1.32-1.26-1.4,4.97-9.77,4.05-6.39,5.71-3.94,4.23-2.13,2.59-7.71.53-4.9-.05-5.18Z"/>
    <path class="cls-8" d="M178.81,139.58s2.19-1.1,5.42.13,4.29,3,4.29,3l-.44,3.17-.6,7.79-1.58,6.59-2.47,2.56-.69,1.31,4.78,4.33,2.05,1.69,3.31,10.61.53,8.52-.31,7.17-1.97.87-4.98-6.06-1.11-.3-1.76-.88-5.16-6.05-1.76-6.8-.35-4.44-4.35-1.85-4.4-3.94-.82-5.14,2.19-7.13,4.3-6.38,4.58-6.59,1.3-2.18Z"/>
    <path class="cls-6" d="M188.39,168.36l1.19-1.51.02-.7,1.29-1.5,3.38-1.39,7.94.19,6.94,1.4,6.21.84.92-.03,3.97,1.53,8.38,3.56,4.08,4.23,1.38,2.4,2.2-.51,6.72-3.33,2.66-6.31,1.04-5.92v-5.8s-3.29-5.96-6.45-8.23-9.78-5.81-19.17-9.24-17.88-4.12-24.06-2.8c-6.18,1.32-5.81,3.62-8.51,7.45-.76,4.2-.53,6.3-.61,10.02-.79,3.79-.37,13.1-.37,13.1l-.13,2,.97.53Z"/>
    <path class="cls-8" d="M215.35,165.69c.31-.01.62-.02.92-.03.53.59.95,1.43,1.61,1.71,1.68.71,3.5,1.06,5.19,1.75,3.77,1.53,7.84,2.71,9.39,7.4-4.83.08-8.01-3.33-11.84-5.19,3.25,4.45,7.63,6.77,12.59,6.81-2.96,5.78-5.95,11.38-8.71,17.09-1.13,2.35-.22,4.62,1.8,5.12-1.17,3.29-2.27,6.57-3.51,9.8-.55,1.44-1.33,2.8-2.08,4.15-1.56,2.83-4.01,3.96-7.13,3.26-4.45-1-8.86-2.12-13.28-3.25-3.36-.85-5.65-2.99-6.55-6.32-.88-3.21-3.85-6.35-.57-9.86.38-.41.43-1.2.48-1.83.66-8.59.77-17.09-3-25.18-.6-1.3-.3-3.02-.48-5.29,6.2,3.89,11.83,4.1,18.33,1.29-3.35.22-5.94.52-8.53.53-2.67.01-5.36-.19-7.87-2.9,2.36-.36,4.16-.99,5.88-.82,4.8.5,9.56,1.37,14.35,2,.98.13,2.02-.15,3.03-.24ZM213.5,175.63c-.22-.03-.45-.07-.67-.1-.79,3.95-1.58,7.91-2.36,11.86.22.04.44.09.66.13.79-3.96,1.58-7.93,2.37-11.89Z"/>
    <path class="cls-1" d="M244.24,167.21c-2.29-2.84-4.18-5.18-6.07-7.53-.1.11-.2.21-.3.32,1.18,2.59,2.28,5.21,3.55,7.75.86,1.71.43,3.14-.97,4.05-1.65,1.07-3.51,1.83-5.36,2.51-.38.14-1.13-.59-1.67-.99-3.12-2.3-6.07-4.88-9.38-6.85-3.66-2.18-6.71-4.65-8.03-8.87-.5-1.6-1.27-3.12-2.33-4.54.36,3.12.71,6.24,1.09,9.57-7.95-2.48-15.83-2.79-23.62-.06-2.85-2.46-3.45-4.97-1.05-8.13.67-.88-.03-2.71.5-3.81,1.22-2.48,2.81-4.77,4.32-7.24-1.43,1.16-2.93,2.37-4.53,3.67.24-9.49,10.13-10.57,15.3-7.6,2.82,1.61,5.53,3.41,8.99,5.56-1.63-1.99-2.75-3.35-3.88-4.72.13-.16.26-.31.39-.47,2.53,1.97,5.33,3.69,7.53,5.98,2.7,2.82,5.68,3.34,9.2,2.54.52-.12,1.06-.19,1.91-.34-3.16,2.37-6.07,4.54-8.92,6.68,4.4-1.68,8.6-3.62,12.99-4.83,2.76-.76,5.86-.06,7.51,2.66,1.45,2.39,2.68,4.92,2.04,8.1-.38,1.91.43,4.06.76,6.58Z"/>
    <path class="cls-5" d="M257.84,183.17c-3.69-2.38-8.66-2.3-11.59-6.26,4.01,1.91,7.95,3.79,11.9,5.66-.1.2-.21.4-.31.6Z"/>
    <path class="cls-5" d="M213.5,175.63c-.79,3.96-1.58,7.93-2.37,11.89-.22-.04-.44-.09-.66-.13.79-3.95,1.58-7.91,2.36-11.86.22.03.45.07.67.1Z"/>
    <path class="cls-6" d="M188.19,194.69c1.57,5,2.96,9.79,4.58,14.49,1.18,3.42,3.73,5.53,7.24,6.42,4.59,1.16,9.17,2.39,13.8,3.42,3.71.83,6.82-.81,8.5-4.82,2.04-4.87,3.67-9.91,5.45-14.88.28-.79.45-1.61,1.21-2.35,0,.39.09.79.01,1.16-2.59,11.97-6.75,23.09-16.44,31.38-4.43,3.79-8.56,7.93-12.97,11.73-2.46,2.12-3.41,1.58-3.85-1.74-.92-6.95-1.59-13.95-2.85-20.84-1-5.44-2.87-10.72-4.07-16.13-.55-2.49-.42-5.13-.61-7.84Z"/>
    <path class="cls-8" d="M186.95,194.23l1.63,9.66,2.01,9.34,3.86,19.75.92,6.75,1.05,4.38-3.16,3.76-4.86,7.04-7.92,11.99s-6.38,2.69-19.32-1.59-14.09-8.64-14.09-8.64l8.01-16.39,5.14-7.9,3.55-6.73,5.59-9.3,5.64-8.43,5.56-7.16,5.4-6.14.99-.4Z"/>
    <path class="cls-8" d="M196.39,245.17l-2.13,7.67-2.03,7.11-1.7,9.53s5.28,4.22,12.06,6.34,15.23,1.58,15.23,1.58l2.61-3.07,3.4-6.19,4.1-8.18,3.44-7.87,2.82-9.37,1.66-11.12-.16-11.11-2.04-10.13-2.69-8.34-1.17-3.79-1.77,6.19-1.98,6.93-2.65,6.03-3.32,4.71-5.26,6.38-6.55,5.84-6.26,5.48-5.61,5.4Z"/>
    <path class="cls-5" d="M215.35,165.69c-1.01.09-2.04.37-3.03.24-4.79-.63-9.55-1.5-14.35-2-1.72-.18-3.53.46-5.88.82,2.51,2.71,5.2,2.91,7.87,2.9,2.6-.01,5.19-.31,8.53-.53-6.5,2.81-12.13,2.6-18.33-1.29.17,2.26-.13,3.99.48,5.29,3.76,8.1,3.66,16.6,3,25.18-.05.63-.1,1.42-.48,1.83-3.28,3.51-.31,6.65.57,9.86.91,3.33,3.19,5.46,6.55,6.32,4.42,1.12,8.83,2.25,13.28,3.25,3.12.7,5.57-.43,7.13-3.26.75-1.36,1.53-2.71,2.08-4.15,1.24-3.23,2.34-6.52,3.51-9.8-2.02-.49-2.93-2.77-1.8-5.12,2.76-5.71,5.74-11.31,8.71-17.09-4.96-.04-9.34-2.36-12.59-6.81,3.84,1.86,7.01,5.28,11.84,5.19-1.54-4.69-5.62-5.87-9.39-7.4-1.69-.68-3.52-1.04-5.19-1.75-.66-.28-1.08-1.12-1.61-1.71,7.39,1.88,14.92,3.54,18.49,11.21,10.63-3.15,11.24-12.01,11.96-21.35,2.51,7.28-2.22,13.3-1.83,19.95-4.55-1.09-8.16,1.52-10.75,5.05-3.24,4.41-5.75,9.36-8.92,14.66,3.72-.14,4.07-2.77,5.28-4.37,1.28-1.69,2.3-3.58,3.44-5.39.29.19.57.38.86.57-1.78,2.95-3.57,5.9-5.35,8.85.29.23.58.47.87.7,2.39-2.75,4.78-5.5,7.17-8.26.24.21.47.43.71.64-1.29,1.77-2.59,3.54-3.88,5.32l.65.68c1.87-1.85,3.74-3.71,5.6-5.56.23.2.46.4.68.59-.56.78-1.12,1.57-1.77,2.47,4.34-1.66,4.72-2.12,7.44-8.2-.51,2.26-1.02,4.52-1.58,7.02,3.05,1.27,6.24,3.07,9.91,1.98,1.09-.32,2.13-1.51,2.75-2.57,3.25-5.51,2.14-11.03.45-16.86-1.17-4.05-.84-8.54-1.18-12.84.4-.03.8-.06,1.19-.09.14,1.83.2,3.67.44,5.48.4,3.13.35,6.47,1.47,9.34,2.43,6.16.93,11.73-1.81,17.1-1.24,2.44-4.17,2.26-6.65,2.13-.71-.04-1.5-.24-2.09-.61-4.41-2.78-8.52-1.31-12.6.8-.8.41-1.63.87-2.49,1.04-4.24.86-4.29.84-3.26,5,.72,2.92,1.6,5.81,2.42,8.71,4.28,15.02,3.63,29.82-2.49,44.2-2.89,6.78-6.36,13.31-9.71,19.88-.87,1.69-2.3,3.09-3.87,4.44,15.2-23.65,23.47-48.28,12.1-76.06-1.35,4-2.76,8.01-4.07,12.05-2.94,9.07-9.95,14.95-16.56,21.11-3.4,3.17-7.15,5.98-10.49,9.21-1.3,1.26-2.26,3.13-2.75,4.9-1.66,5.98-3.05,12.05-4.54,18.08-.24.95-.51,1.89-.98,2.79-.22-7.18,2.04-13.9,3.94-21.4-5.89,5.82-7.35,14.31-13.99,18.85,4.26-7.04,8.48-14.02,12.75-21.08,1,.35,2.64-1.17,2.37-2.75-.74-4.26-1.38-8.55-2.24-12.79-1.27-6.23-2.76-12.42-4.02-18.66-1.1-5.41-2.01-10.85-3.05-16.5-16.65,18.06-27.3,40.15-39.22,61.54.38-1.1.72-2.22,1.14-3.3.43-1.11.9-2.2,1.42-3.27.55-1.15,1.14-2.29,1.77-3.39,6.83-11.84,13.39-23.85,20.63-35.42,3.79-6.06,8.79-11.37,13.27-17,.81-1.02,1.53-1.73-.19-2.72-5.76-3.3-9.28-8.12-9.42-14.97-.03-1.59-.03-2.78-1.84-3.71-8.8-4.55-10.67-9.53-4.75-20.1,2.64-4.72,6.16-8.96,9.7-13.23-1.24,2.34-2.36,4.75-3.73,7.01-2.11,3.5-4.66,6.75-6.54,10.36-3.19,6.12-1,12.4,5.56,14.33,3.34.98,3.06,2.64,2.96,4.86-.17,3.94,1.3,7.24,3.99,10.16-.12-.63-.24-1.26-.36-1.9.2-.12.39-.24.59-.37,1.02,2.1,2.04,4.2,3.06,6.3.33-.11.67-.23,1-.34-.15-1.71-.31-3.43-.46-5.14l.79-.2c.7,2.63,1.41,5.27,2.11,7.9.34-.08.68-.15,1.02-.23-.03-2.55-.05-5.11-.08-7.66.32-.03.63-.06.95-.1.18,2.02.17,4.08.61,6.04.37,1.65-1.26,4.12,1.78,5.14,1.53-9.08.74-17.56-3.52-25.47-.82-1.52-2.46-2.66-3.88-3.78-2.59-2.06-5.21-4.1-7.98-5.9-1.8-1.17-3.89-1.89-5.97-2.86,4.94-.56,7.69,3.34,11.31,5.67,3.49-3.44,4.6-7.56,4.84-12.16.15-2.9.85-5.77,1.64-8.54-.22,8.12-.44,16.23-.66,24.35.27.07.55.13.82.2,1.02-2.73,3.18-4.09,5.76-4.4,7.19-.88,14.16.28,20.91,2.83ZM188.19,194.69c.19,2.71.06,5.35.61,7.84,1.2,5.41,3.07,10.69,4.07,16.13,1.26,6.89,1.94,13.89,2.85,20.84.44,3.32,1.38,3.86,3.85,1.74,4.42-3.8,8.54-7.94,12.97-11.73,9.69-8.28,13.85-19.41,16.44-31.38.08-.37,0-.77-.01-1.16-.76.73-.93,1.56-1.21,2.35-1.78,4.97-3.41,10.01-5.45,14.88-1.68,4.01-4.79,5.65-8.5,4.82-4.62-1.03-9.2-2.26-13.8-3.42-3.51-.89-6.06-3-7.24-6.42-1.62-4.71-3.01-9.49-4.58-14.49ZM183.66,164.03c1.05.73,1.9,1.32,3.21,2.22-.12-2.23-.21-3.96-.34-6.35-1.13,1.63-1.87,2.7-2.87,4.13Z"/>
  </g>
  <g>
    <path class="cls-5" d="M380.07,127.36c-2.89,7.59-4.95,15.47-6.15,23.5-.28,1.89,1.07,3.52,3.08,3.08,4.68-1.04,9.38-2.07,14.14-2.72s9.55-.86,14.34-.87c3.22,0,3.22-5.01,0-5-5.03.01-10.03.29-15.01.96s-9.9,1.72-14.8,2.81l3.08,3.08c1.2-8.03,3.26-15.91,6.15-23.5.48-1.26-.53-2.74-1.75-3.08-1.41-.39-2.59.48-3.08,1.75h0Z"/>
    <path class="cls-5" d="M400.77,124.92c-3.95,14.46-5.78,29.48-5.39,44.46.08,3.21,5.08,3.22,5,0-.38-14.57,1.37-29.08,5.21-43.14.85-3.11-3.97-4.43-4.82-1.33h0Z"/>
  </g>
  <path class="cls-5" d="M353.73,127.33c-6.37,3.27-9.68,10.59-11.12,17.26-.83,3.84-1.12,7.81-.76,11.72s1.03,7.76,3.05,11c1.9,3.06,5.05,5.35,8.73,5.48s7.08-1.95,9.27-4.73c2.38-3.01,3.63-6.76,4.58-10.43,1.01-3.94,1.58-8.02,1.7-12.08s-.11-8.73-1.74-12.69-5.04-7.36-9.53-6.33c-3.14.72-1.81,5.54,1.33,4.82,2.1-.48,3.52,2.97,3.98,4.46.91,2.91,1.03,6,.98,9.03-.05,3.24-.41,6.46-1.1,9.62-.63,2.89-1.4,5.89-2.81,8.51-1.18,2.2-3.01,4.31-5.6,4.75-2.29.39-4.3-1.07-5.47-2.94-1.54-2.48-2.1-5.61-2.37-8.48-.28-3.09-.2-6.23.36-9.28,1.07-5.79,3.48-12.53,9.05-15.39,2.86-1.47.34-5.79-2.52-4.32h0Z"/>
  <g>
    <path class="cls-5" d="M312.8,141.03c-1.05,3.82-2.18,7.63-3.07,11.49s-1.51,8.01-1.98,12.06c-.25,2.15,2.91,3.3,4.27,1.77,2.67-3.01,7.14-4.1,10.88-5.12s7.81-1.5,11.83-1.65c3.21-.12,3.22-5.12,0-5-4.57.17-9.12.68-13.53,1.93s-9.54,2.72-12.72,6.31l4.27,1.77c.89-7.61,2.84-14.85,4.87-22.22.86-3.11-3.97-4.43-4.82-1.33h0Z"/>
    <path class="cls-5" d="M331.29,135.27c-2.62,13.7-5.64,27.35-6.41,41.32-.18,3.22,4.82,3.21,5,0,.75-13.52,3.7-26.73,6.24-39.99.25-1.32-.37-2.7-1.75-3.08-1.22-.34-2.82.41-3.08,1.75h0Z"/>
  </g>
  <g>
    <path class="cls-5" d="M385.05,211.86c.29.79.59,1.58.89,2.37.07.19.14.37.21.56.09.23.16.48.31.69.32.48,1.03.59,1.42.26.38-.32.4-1.02-.07-1.38-.39-.29-.96-.36-1.26.02-.27.33-.28.94.14,1.25,0,0,.01,0,.02.01-.11-.21-.22-.41-.33-.62,0,0,0,.02,0,.02.07-.21.13-.42.19-.63,0,0,0,.01-.01.02.12-.08.25-.16.37-.23,0,0-.02,0-.02,0,.23.03.46.05.7.08-.01,0-.02-.01-.03-.02.12.1.24.21.36.31.08.16.1.19.05.08-.01-.03-.03-.07-.04-.1-.03-.08-.06-.15-.09-.23-.05-.13-.11-.26-.16-.4-.11-.29-.23-.57-.34-.86-.22-.57-.45-1.14-.67-1.71-.17-.44-.7-.75-1.13-.59-.43.16-.67.63-.49,1.1h0Z"/>
    <path class="cls-5" d="M351.48,207.17c-.69,3.75-.09,7.38-1.18,11.19-.33,1.1,1.55,1.1,1.84,0,1.02-3.83.35-7.45.98-11.21.17-1.09-1.44-1.08-1.64.01t0,0Z"/>
    <path class="cls-5" d="M358.02,213.37c-1.3.03-2.65.68-3.39,1.9-.71,1.17-.33,2.3.56,2.99,1.7,1.31,5.3.77,6.22-1.66.5-1.3-.04-2.6-1.23-3.06-.41-.15-1.01.19-1.18.62-.2.49.01.89.45,1.05-.14-.05-.01,0,.05.03.12.07.03.01,0-.01.03.02.05.04.07.07.02.02.14.16.09.09-.06-.07,0,.01.01.03.02.05.05.1.07.15.01.03.02.06.04.1,0-.02-.02-.13-.02-.04,0,.08.02.16.03.24.01.16.02-.11,0,.05,0,.04-.05.26-.03.17.03-.1-.06.14-.08.18-.03.06-.13.19-.04.07-.06.08-.11.16-.17.23-.03.03-.05.06-.08.09.06-.07.05-.05,0,0-.06.06-.13.11-.19.16-.04.03-.09.07-.14.1.02-.01.12-.07.03-.02-.08.04-.15.08-.22.12-.04.02-.08.04-.12.05-.24.11.09-.03-.07.02-.1.03-.19.06-.29.08-.05.01-.1.02-.15.03-.02,0-.18.02-.04,0-.21.02-.42.02-.63,0-.16-.01.11.02-.04,0-.05,0-.09-.02-.14-.02-.09-.02-.18-.04-.27-.07-.08-.02-.16-.05-.24-.08-.15-.05-.04-.02,0,0-.04-.02-.09-.04-.13-.07-.07-.03-.13-.07-.19-.11-.04-.03-.08-.06-.12-.08,0,0-.09-.08-.03-.02.05.05-.08-.08-.1-.11-.02-.03-.04-.05-.07-.08-.1-.11.01.05-.02-.03-.03-.06-.05-.13-.09-.19-.04-.07,0,.02,0,.04,0-.03-.01-.07-.02-.1,0-.05,0-.1-.01-.14-.01-.09,0,.02,0,.04,0-.04.01-.08.02-.12,0-.02.05-.18.02-.09-.04.1.02-.04.02-.04,0,0,.11-.21.06-.13-.05.08.03-.04.03-.05.04-.05.07-.1.11-.14,0,0,.1-.11.04-.05-.07.07.1-.09.12-.1.04-.03.07-.06.11-.08.12-.09-.1.06.03-.02.04-.02.08-.05.12-.07.02,0,.23-.11.14-.07-.08.04.06-.02.06-.02.06-.02.12-.04.18-.05.04-.01.09-.02.14-.03.03,0,.23-.04.07-.02.12-.02.24-.02.36-.02.47-.01.98-.4,1.03-.87.05-.46-.24-.86-.74-.85t0,0Z"/>
    <path class="cls-5" d="M365.51,212.48c-1.27.36-2.28,1.46-2.54,2.72-.27,1.33.51,2.46,1.73,2.93,1.09.41,2.69.37,3.75-.32,1.27-.81,1.64-2.32,1.11-3.54-.54-1.25-2.13-1.85-3.48-1.28-.44.18-.83.6-.72,1.08.09.4.56.78,1.04.58.09-.04.18-.07.28-.1.05-.01.09-.02.14-.03.17-.04,0,0-.02,0,.1,0,.19,0,.29,0,.05,0,.17.02-.02,0,.06,0,.12.02.17.03.05.01.09.02.13.04.03,0,.16.06.06.02-.1-.04.03.02.05.03.04.02.08.04.12.07.02.01.14.1.05.03-.09-.07.02.03.04.04.03.03.06.06.09.1.06.07.07.11.02.01.04.08.09.16.13.24.02.04.04.14,0-.02.01.04.03.09.04.13.02.09.03.18.05.27,0-.04,0-.18,0-.02,0,.06,0,.12-.01.17,0,.03-.02.18,0,.06.02-.12,0,.03-.02.06-.01.05-.03.09-.05.14,0,.03-.08.17-.03.07.04-.08-.08.13-.11.17-.09.14-.03.04,0,0-.05.06-.11.11-.17.17-.03.03-.14.1,0,0-.05.03-.09.06-.14.09-.05.03-.1.05-.15.07.03-.02.17-.06,0,0-.1.04-.21.07-.32.09-.05.01-.11.02-.16.03-.17.04.07,0-.04,0-.2,0-.4.03-.59.02-.05,0-.34-.03-.15,0-.13-.02-.25-.04-.38-.07-.1-.02-.19-.06-.29-.09.17.06-.08-.04-.12-.07-.03-.02-.22-.14-.16-.09.09.06-.03-.03-.05-.05-.04-.04-.08-.08-.12-.12-.03-.03-.06-.07-.09-.11.1.13.03.03.01,0-.04-.08-.08-.16-.12-.24.08.16-.01-.06-.02-.12,0-.05-.01-.09-.02-.14-.04-.21-.02.17,0-.05,0-.09.02-.19.03-.28.02-.16,0-.02-.01.02.02-.07.04-.14.07-.21.02-.04.04-.09.06-.13.07-.15-.06.07,0-.01.07-.09.12-.18.19-.27.1-.13.01,0-.01.01.05-.05.1-.1.16-.15.03-.02.06-.05.08-.07.08-.06.12-.08.01-.01.11-.06.21-.12.32-.18.06-.03.14-.03-.02,0,.07-.02.14-.05.21-.06.46-.13.82-.64.71-1.08-.11-.45-.53-.72-1.02-.58h0Z"/>
    <path class="cls-5" d="M371.46,207.33c.14,2.86.27,5.72.4,8.59.02.47.36.86.88.85.47,0,.95-.42.92-.89-.18-2.87-.36-5.74-.55-8.61-.03-.47-.33-.86-.8-.85-.41.01-.87.43-.85.9t0,0Z"/>
    <path class="cls-5" d="M375.7,209.34c-.79.43-1.53,1.04-2.13,1.76-.36.44-.79.94-.8,1.53-.02.69.49,1.01,1.03,1.29,1.84.95,3.82,1.77,5.87,2.47.47.16.99-.2,1.08-.64.11-.5-.22-.91-.68-1.07-1.62-.56-3.19-1.21-4.67-1.94-.19-.09-.37-.18-.55-.28-.11-.06-.39-.28-.51-.27.14-.01.09.51.17.5.03,0,.13-.19.14-.21.08-.12.14-.18.26-.33.51-.58.99-.96,1.66-1.32.41-.22.51-.82.29-1.21-.25-.43-.75-.5-1.16-.28h0Z"/>
    <path class="cls-5" d="M381.36,211.91c.16,1.1.32,2.21.49,3.31.07.44.37.8.84.85.47.05.83-.23.94-.65.02-.06.03-.12.05-.18.12-.44-.26-.98-.71-1.07-.5-.1-.92.17-1.05.64-.02.06-.04.12-.05.18.59.07,1.18.13,1.78.2-.18-1.11-.37-2.21-.54-3.31-.07-.46-.44-.9-.93-.86-.43.03-.88.41-.81.9h0Z"/>
    <path class="cls-5" d="M381.55,208.23c1.08-.03.94-1.79-.12-1.76-1.05.03-.97,1.79.12,1.76h0Z"/>
    <path class="cls-5" d="M388.2,213.69c-.03-.1-.02-.08.01.06,0-.04-.02-.08-.02-.11-.01-.08-.02-.15-.03-.23,0-.03-.04-.27,0-.11.03.14,0-.06.01-.11,0-.08.02-.15.04-.22,0-.04.02-.07.03-.11-.04.12-.04.14-.01.05.02-.04.13-.36.16-.34-.07.1-.08.12-.02.05.02-.03.04-.06.07-.08.03-.03.09-.08.11-.12-.09.08-.11.09-.04.03.03-.02.06-.04.08-.06.03-.02.16-.07.18-.11-.12.05-.14.06-.05.03.02,0,.03-.01.05-.02.07-.02.14-.04.2-.06.09-.02.07-.01-.07,0,.04,0,.07,0,.11,0,.06,0,.13,0,.19,0,.22,0-.17-.04,0,0,.07.01.14.03.22.05.04.01.07.02.11.03-.12-.05-.15-.06-.09-.04.06.03.12.05.18.09.03.02.07.04.1.06-.12-.08-.14-.1-.06-.04.03.02.17.12.17.15-.02-.02-.04-.05-.07-.07.03.04.06.07.09.11.06.07.11.15.16.23.05.09.05.08-.01-.03.02.04.04.08.06.12.03.06.06.13.09.19.08.19.16.38.23.57.06.17.14.36.18.54-.05-.22.03.11.04.15.03.1.05.21.07.31.1.46.53.91,1.03.88.46-.03.87-.4.75-.9-.32-1.37-.9-3.28-2.36-3.91-1.38-.59-2.82-.12-3.42,1.17-.33.71-.34,1.51-.11,2.3.13.46.76.74,1.17.6.48-.17.63-.61.49-1.1h0Z"/>
    <path class="cls-5" d="M395.39,208.83c-.64.07-1.2.35-1.52.91-.24.44-.38.94-.39,1.49,0,.3.02.59.11.89.11.36.29.69.51,1.01.43.64,1.07,1.21,1.81,1.45.93.3,1.92.02,2.41-.64.25-.34.14-.94-.28-1.27-.42-.32-.98-.35-1.24,0-.02.03-.09.08-.1.12,0,0,.12-.1.06-.05-.02.01-.04.03-.06.05-.02.02-.2.11-.08.06.12-.05-.06.02-.1.03-.05.01-.11.02-.16.04,0,0,.19-.01.09-.02-.03,0-.06,0-.08,0-.04,0-.26-.02-.11,0,.15.03-.07-.02-.11-.03-.03,0-.06-.02-.09-.02-.09-.02.08.03.09.04-.03-.03-.09-.04-.12-.06-.02-.01-.04-.03-.06-.04-.08-.04.1.07.1.07-.04-.05-.12-.09-.17-.13-.04-.04-.08-.08-.13-.11-.13-.11.13.14,0,.01-.09-.11-.18-.21-.27-.33-.04-.05-.07-.1-.1-.15-.1-.14.09.16,0,.01-.06-.11-.11-.21-.15-.32-.09-.2.03.17,0,.03,0-.04-.02-.09-.03-.13,0-.03,0-.07,0-.1,0-.01.01.23.01.16,0-.02,0-.04,0-.07,0-.16,0-.32.02-.47,0-.04.01-.08.02-.11.03-.17-.05.17,0,.04.02-.08.05-.16.08-.24.02-.04.04-.08.06-.13,0,0-.1.16-.05.1.02-.02.03-.06.05-.08.03-.04.06-.07.08-.11.1-.13-.12.09-.02.02.04-.03.07-.06.11-.08.02-.01.04-.02.05-.03.09-.06-.05.04-.07.03.05,0,.12-.05.17-.06.02,0,.05,0,.07-.02.09-.03-.22.03-.05,0,.44-.05.8-.39.67-.9-.11-.45-.57-.94-1.04-.89t0,0Z"/>
    <path class="cls-5" d="M397.13,211.15c.58.93,1.11,1.9,1.57,2.87.25.53.49,1.06.69,1.6.13.35.28.74.13,1.05-.31.61-1.23.9-1.94,1.01-.1.01-.7-.01-.74.04,0,.01.17.16.2.16,0,0-.1-.2-.12-.24-.17-.37-.22-.81-.14-1.16.1-.44-.06-.96-.57-1.22-.42-.22-1.06-.12-1.17.33-.28,1.14-.12,3.46,1.64,3.86.76.18,1.66.01,2.32-.18.65-.19,1.25-.48,1.72-.9.46-.41.76-.97.72-1.65-.04-.75-.39-1.51-.72-2.24-.65-1.47-1.45-2.88-2.32-4.25-.29-.44-.93-.54-1.24-.31-.38.27-.32.78-.04,1.23t0,0Z"/>
  </g>
  <g>
    <path class="cls-5" d="M316.82,235.5c-1.42,2.48-3.2,5.85-.5,7.81,1.12.81,2.73.8,4.1.14,1.48-.71,2.39-2.03,2.91-3.4,1.08-2.85,1.08-6.06.49-8.82-.29-1.35-.74-2.66-1.33-3.84-.44-.86-1.23-2.74-2.51-1.73-1.19.92-.88,2.71,0,3.41,1.25,1.01,3.36.54,4.92.06,1.05-.32.69-1.96-.33-1.64-.94.3-3.09.96-3.65-.05-.06-.09-.09-.19-.1-.3.09-.34-.09-.36-.54-.08-.02.06.35.57.38.62.28.5.53,1.03.75,1.58.83,2.07,1.19,4.45.97,6.84-.18,1.93-.71,5.64-3.46,6.12-1.28.22-2.03-.82-2.13-1.81-.14-1.37.75-2.81,1.45-4.06.56-1-.83-1.85-1.42-.84t0,0Z"/>
    <path class="cls-5" d="M322.31,236.88c1.69.75,3.99.33,5.35-1.16.32-.35.38-.92.03-1.23-.33-.29-.9-.31-1.24.07-.06.07-.13.13-.19.2-.06.06-.16.11-.21.18.03-.04.14-.1.04-.03-.04.03-.08.06-.12.09-.08.05-.15.1-.23.15-.08.05-.16.08-.24.13-.11.06.16-.07.05-.02-.05.02-.09.04-.14.06-.17.07-.34.12-.52.16-.04,0-.08.02-.12.03-.12.03.01,0,.06,0-.09,0-.18.03-.27.03-.18.02-.36.02-.53.01-.14,0-.04-.02.03,0-.03-.01-.08,0-.12-.01-.09-.01-.17-.03-.25-.05-.08-.02-.17-.04-.25-.07-.03-.01-.07-.03-.11-.04.19.03.07.02,0,0-.4-.18-.96-.09-1.23.36-.24.39-.21.97.22,1.17t0,0Z"/>
    <path class="cls-5" d="M332.95,231.05c-1.49.07-2.49,1.65-2.99,2.96-.25.68-.39,1.42-.27,2.11.14.8.74,1.35,1.53,1.57,1.31.36,2.98.11,4.11-.62,1.14-.73,1.88-2.08,1.69-3.44-.23-1.55-1.62-2.92-3.15-2.7-.44.06-.86.43-.82.93.03.45.41.9.89.83.1-.01.2-.02.31-.02-.18,0,.09.03.15.04.03,0,.16.05,0,0,.04.01.07.03.11.05.04.02.31.19.18.09.08.06.16.14.24.21.02.02.11.12.01,0,.03.04.07.08.1.13.05.08.1.16.15.24.07.12-.04-.12,0,.01.02.06.05.12.07.19.01.05.03.1.04.16,0-.05-.01-.15,0,.02,0,.11.01.22,0,.33,0-.16-.02.08-.03.13-.01.05-.02.11-.04.16-.01.05-.05.18-.01.06-.07.2-.17.39-.29.56-.08.12.07-.09-.02.02-.04.04-.07.09-.11.13-.08.09-.17.19-.27.27.12-.1-.15.1-.18.12-.09.06-.18.11-.28.16-.13.07.1-.04-.04.02-.06.02-.11.05-.17.07-.13.05-.26.09-.4.13-.06.02-.12.03-.18.04-.02,0-.17.03-.04,0-.11.02-.22.03-.32.04-.26.02-.53.03-.79,0,.15.01-.18-.03-.21-.03-.04,0-.09-.02-.13-.03-.02,0-.19-.05-.1-.02.06.02-.22-.13-.18-.09.07.05-.04-.04-.04-.04.09.13-.05-.09-.05-.1.07.17-.03-.17-.01-.08.02.1,0-.07,0-.1,0-.06,0-.12,0-.17,0-.05.03-.3,0-.15.02-.16.06-.31.1-.47.12-.46.33-.93.62-1.33.03-.04.15-.19.22-.27.04-.04.08-.09.12-.13.02-.02.04-.04.06-.06-.05.04-.05.04,0,0,.05-.04.09-.07.14-.1.05-.03.17-.09.06-.04.05-.02.1-.04.16-.06-.14.05.05,0,.1,0,.45-.02.87-.46.83-.93-.04-.48-.41-.85-.88-.83t0,0Z"/>
    <path class="cls-5" d="M338.21,231.69c.69,1.39,1.27,2.86,1.71,4.37.13.43.65.68,1.05.62.43-.07.74-.44.68-.89-.09-.68-.29-1.35-.39-2.02-.02-.16-.04-.32-.06-.48,0-.07,0-.14,0-.21,0-.19-.02.17,0-.04.01-.12.02-.23.04-.35.01-.07.03-.13.04-.2.04-.22-.07.16.01-.04.04-.11.1-.22.14-.33.04-.09-.09.12,0,0,.04-.05.08-.1.12-.15.13-.15-.14.08.04-.03.05-.03.09-.07.14-.1.03-.02.06-.03.09-.05-.08.04-.1.05-.04.03.05-.01.11-.04.16-.05.03-.01.26-.05.04-.02.07,0,.14-.02.21-.02.12,0,.24,0,.36,0,.2,0-.13-.03.06,0,.07.01.15.03.22.04.14.03.29.08.43.12.45.15.93-.18.96-.64.03-.5-.28-.95-.75-1.11-.71-.24-1.45-.31-2.13-.13-.69.18-1.26.71-1.57,1.39-.29.64-.36,1.38-.3,2.1.07.78.3,1.55.39,2.33.58-.09,1.15-.19,1.73-.27-.47-1.52-1.07-2.99-1.78-4.4-.22-.42-.65-.76-1.1-.58-.38.15-.72.67-.5,1.12t0,0Z"/>
  </g>
  <g>
    <path class="cls-5" d="M357.09,228.36c-1.25-.17-2.58.01-3.95.91-1.18.78-2.43,2.31-2.01,3.37.2.49.69.78,1.28.89.62.11,1.39,0,1.96.21.45.16.71.59.95.95.09.13.22.3.2.48,0,.11-.07.17-.2.27-.54.42-1.39.58-2,.65-.38.05-.8.08-1.15.03.02,0-.18-.04-.19-.04-.11-.03-.04,0-.05-.1-.05-.42-.7-.52-1.17-.31-.57.25-.81.73-.77,1.16.14,1.3,2.5,1.09,3.81.82,1.43-.29,3.24-1.06,3.57-2.48.17-.71-.14-1.29-.48-1.78-.32-.46-.69-.91-1.22-1.16-.6-.28-1.32-.27-2.04-.32-.29-.02-.87-.07-.69-.45.6-1.22,2.22-1.58,3.19-1.45.44.06.95-.12,1.22-.61.23-.4.15-.98-.27-1.04h0Z"/>
    <path class="cls-5" d="M377.88,228.37c.6,2.33,1.26,4.66,1.97,7,.29.95,1.97.74,1.81-.26-.26-1.62-.69-4.04.6-5.24.06-.05.11-.09.18-.13.06-.04-.09-.05-.03,0,.15.11.25.26.36.41.3.41.58.83.85,1.26.54.88.98,1.82,1.35,2.78.18.46.78.73,1.23.6.51-.15.61-.62.46-1.1-.26-.83-.52-1.72-.5-2.56,0-.38.08-.74.21-1.08.12-.31.34-.51.5-.79.04-.05.08-.09.14-.13-.24-.14-.31-.16-.22-.07.01-.03.24.4.21.34.23.42.45.86.66,1.29.42.87.79,1.76,1.11,2.67.17.47.84.73,1.25.61.49-.14.57-.63.39-1.1-.49-1.29-1.08-2.56-1.76-3.79-.27-.49-.55-1.01-.99-1.37-.56-.46-1.21-.47-1.7-.14-.83.57-1.35,1.68-1.51,2.75-.19,1.27.17,2.59.53,3.86.57-.17,1.13-.33,1.69-.5-.54-1.32-1.23-2.59-2.03-3.77-.74-1.08-1.73-2.42-3.02-1.78-1.01.5-1.58,1.8-1.83,2.91-.3,1.33-.15,2.74.03,4.1.6-.09,1.2-.18,1.8-.26-.77-2.34-1.49-4.68-2.15-7.01-.31-1.1-1.85-.58-1.58.51t0,0Z"/>
    <path class="cls-5" d="M394.15,224.31c-1.19-.21-2.28.19-2.77,1.23-.28.59-.38,1.32-.06,2.08.27.65.83,1.17,1.46,1.47,1.25.61,2.58.65,3.87,1.21.52.22.8.57.97,1.09.14.42.15.86,0,1.19-.36.76-1.57.72-2.26-.11-.84-1.02-2.12-.1-1.3.91.92,1.12,2.44,1.67,3.67,1.5,1.31-.18,1.98-1.22,1.88-2.48-.1-1.35-1.05-2.9-2.48-3.61-.69-.34-1.39-.5-2.07-.69-.6-.17-1.27-.28-1.85-.57-.16-.08-.31-.15-.36-.33-.08-.26.08-.53.2-.7.26-.35.73-.55,1.23-.46.46.08.83-.14.79-.64-.04-.44-.47-1.02-.91-1.1h0Z"/>
    <path class="cls-5" d="M361.71,233.4c.84.02,1.86.06,2.72-.23,1-.34,1.46-1.16,1.66-2.06.17-.78.17-1.69-.44-2.13-.33-.24-.79-.28-1.22-.31-.42-.02-.88.02-1.32.17-1.76.62-2.77,2.39-3.21,4.03-.23.86-.37,1.75-.09,2.52.25.67.81,1.18,1.52,1.47,1.67.68,4.06-.1,5.06-1.75.26-.43.25-.93-.17-1.18-.36-.21-1.02-.1-1.29.33-.27.42-.54.68-.97.9-.21.11-.35.16-.64.21-.11.02-.04.01-.01,0-.07.01-.14.01-.21.02-.07,0-.14,0-.21,0-.03,0-.16-.01-.06,0-.49-.07-.79-.24-1.05-.56-.22-.27-.31-.7-.25-1.15.07-.54.19-1.12.41-1.65.19-.46.46-.92.8-1.22.15-.13.34-.26.44-.3.26-.11.51-.13.77-.12.1,0,.2,0,.3.01-.02,0,.35.06.2,0-.02,0-.06-.03,0-.01.05.02,0-.04,0,.03,0,.02.01.19.01.1,0-.07-.02.16-.02.15-.03.23-.09.49-.15.63-.05.13-.08.2-.12.23.09-.06-.08.02-.1.03-.16.05-.18.04-.37.06-.17.02-.34.03-.51.04-.38.02-.76.03-1.14.02-.47-.01-.97.42-1.07.87-.11.48.23.83.71.85h0Z"/>
    <path class="cls-5" d="M370.68,232.67c.84.02,1.86.05,2.67-.25.94-.35,1.29-1.18,1.37-2.09.07-.79-.05-1.71-.73-2.16-.37-.24-.82-.28-1.25-.31-.42-.02-.88.02-1.29.18-1.66.64-2.42,2.44-2.64,4.09-.11.87-.13,1.77.25,2.54.33.67.96,1.19,1.71,1.48,1.75.67,4.02-.12,4.79-1.8.2-.43.12-.94-.33-1.19-.39-.21-1.03-.1-1.24.34-.21.43-.45.69-.84.92-.2.11-.33.16-.6.22-.1.02-.04.01-.01,0-.07.01-.14.01-.21.02-.07,0-.14,0-.21,0-.03,0-.16-.01-.06,0-.49-.06-.82-.24-1.12-.56-.25-.27-.4-.71-.4-1.16,0-.54.04-1.13.18-1.67.12-.47.33-.93.63-1.24.13-.13.3-.27.4-.31.24-.11.49-.13.75-.13.1,0,.2,0,.3.01-.02,0,.35.06.2,0-.02,0-.07-.03,0-.01.06.01,0-.04.01.03,0,.02.04.19.03.1-.01-.07,0,.16,0,.16,0,.23-.02.49-.06.64-.04.13-.05.2-.09.23.08-.06-.08.02-.09.03-.15.05-.17.04-.36.06-.17.02-.33.03-.5.04-.38.03-.75.03-1.13.02-.47,0-.9.43-.94.89-.04.49.34.84.82.85t0,0Z"/>
  </g>
  <g>
    <path class="cls-5" d="M306.65,216.83c-.49,1.36-.88,2.83-.28,3.99.52,1.01,1.67,1.57,3.07,1.26,1.32-.29,2.5-1.32,3.13-2.44.82-1.46.82-3.04.84-4.51.01-.93-1.58-.64-1.67.31-.15,1.77.21,3.38.45,5.08.2,1.4.28,2.97-.52,4.43-.37.68-.96,1.23-1.67,1.66-.59.37-1.87,1.12-2.55.86-.62-.23-.45-1.39-.3-1.9.19-.67.78-1.47,1.62-1.54,1.2-.1,1.51-1.79.34-1.69-2.65.24-4.22,2.8-3.98,4.89.12,1.03.8,1.91,2.14,1.95,1.27.03,2.59-.6,3.66-1.25,2.26-1.38,3.17-3.53,3.21-5.7.03-2.39-.9-4.5-.74-6.87-.56.1-1.11.21-1.67.3-.06,1.51-.14,4.07-2.26,4.76-.81.26-1.35-.21-1.54-.83-.26-.84.11-1.87.41-2.79.15-.45-.23-.82-.64-.82-.49,0-.88.4-1.04.84t0,0Z"/>
    <path class="cls-5" d="M317.87,214.07c-1,.63-1.78,1.77-1.91,2.91-.13,1.13.4,2.23,1.39,2.69,1.01.47,2.59.47,3.64-.31,1-.75,1.3-2.01,1.3-3.12,0-.78-.31-1.4-.92-1.76-.56-.33-1.26-.31-1.92-.27-.43.03-.88.47-.9.93-.02.47.29.83.76.8.2-.01.4-.02.6-.02.02,0,.19.01.09,0-.1-.01.06.01.08.01.04,0,.08.01.11.02.03,0,.24.08.06,0,.07.03.13.07.2.1.1.04-.08-.09,0-.01.02.02.05.04.07.06.1.09.02.01,0-.02.02.03.04.08.06.11-.07-.1-.01-.08,0,0,0,.02.02.23.02.12,0-.11,0,.07,0,.09,0,.04,0,.08,0,.12,0,.1-.02.19-.03.29-.01.09-.02.19-.04.28,0,.02-.02.14,0,.02.02-.13-.02.07-.02.09-.02.09-.05.18-.08.27-.02.04-.03.09-.05.13,0,.02-.05.13,0,.02.04-.11-.01.02-.03.05-.02.04-.05.08-.07.12-.02.03-.04.06-.06.09.09-.16.02-.02-.03.03-.02.03-.05.05-.08.07-.08.09.12-.07,0,0-.05.03-.25.14-.1.07-.1.04-.2.08-.3.11-.05.01-.1.03-.15.04.13-.03.04,0-.04,0-.2.03-.4.04-.6.03.04,0,.16.02,0,0-.05,0-.1-.01-.15-.02-.1-.02-.2-.04-.3-.07-.15-.04-.05-.02-.01,0-.05-.02-.09-.04-.14-.06-.07-.04-.14-.08-.2-.12-.1-.06.09.09,0,0-.03-.03-.06-.06-.09-.09-.02-.02-.04-.05-.07-.07-.02-.02-.14-.19-.04-.04-.08-.13-.14-.26-.21-.4.07.16-.01-.06-.02-.12,0-.04-.02-.09-.02-.13,0-.02-.02-.22-.01-.09,0,.11,0,0,0-.02,0-.07,0-.14.02-.21,0-.03.01-.07.02-.11,0-.1-.05.15,0-.01.03-.1.06-.21.11-.31.01-.03.07-.17.02-.06-.05.11.04-.07.05-.09.06-.1.13-.19.19-.28.05-.08-.02.02-.03.04.05-.06.1-.11.15-.17.07-.07.14-.14.22-.2-.14.12-.04.03,0,.01.06-.04.12-.08.18-.12.4-.25.61-.83.4-1.2-.21-.38-.67-.49-1.09-.22t0,0Z"/>
    <path class="cls-5" d="M324.49,214.21c-.09.76-.18,1.55-.16,2.31.02.78.21,1.62.85,2.09.65.48,1.58.6,2.37.25.75-.33,1.33-.95,1.62-1.71.38-1.01.3-2.04.07-3.06-.11-.45-.65-.7-1.04-.53-.44.2-.65.65-.55,1.13.02.08.04.17.05.26,0,.04.02.07.02.11,0-.01-.02-.15,0-.05.02.17.04.35.04.52,0,.09,0,.18,0,.26,0,.04,0,.08,0,.11,0,.11,0-.04,0-.05,0,.15-.05.33-.09.47,0,.03-.08.25-.03.12.05-.13-.03.06-.04.09-.03.06-.06.13-.1.19-.01.03-.03.05-.05.08-.01.02-.09.14-.02.03.07-.1.01-.02,0,0-.02.03-.05.06-.08.09-.04.05-.08.09-.12.13-.11.11.14-.11-.03.03-.06.04-.11.08-.17.12-.07.05-.09,0,.05-.02-.02,0-.05.03-.08.04-.05.02-.11.04-.16.06-.02,0-.06.01-.08.02.13-.07.15-.02.06-.02-.07,0-.13.02-.2.02-.22,0,.13.03-.02,0-.05,0-.11-.02-.16-.03-.08-.02-.06-.06.05.02-.02-.01-.05-.02-.07-.03-.02-.01-.05-.02-.07-.04-.12-.06.05.03.04.04-.02.01-.12-.11-.14-.13-.07-.05.04.05.05.06,0-.02-.03-.05-.05-.07-.02-.04-.06-.14-.1-.17,0,0,.06.16.03.08-.01-.04-.03-.07-.04-.11-.04-.11-.04-.26-.09-.36,0,.02.02.21,0,.05,0-.03,0-.06,0-.09,0-.07,0-.14-.01-.21-.03-.75.04-1.51.11-2.26.04-.46-.42-.86-.82-.8-.48.07-.77.45-.83.95h0Z"/>
    <path class="cls-5" d="M330.17,208.79c-.26.64-.53,1.28-.81,1.92-.09.21-.11.47-.05.69.06.2.22.41.4.49.19.09.42.13.63.03.19-.09.36-.24.45-.45.27-.64.53-1.28.79-1.92.08-.21.1-.47.02-.69-.07-.2-.22-.41-.4-.5-.19-.09-.41-.12-.6-.03-.18.09-.35.24-.44.45h0Z"/>
    <path class="cls-5" d="M331.65,214.32c.44,1.09.9,2.19,1.37,3.28.18.41.58.67,1.02.58.42-.08.72-.47.66-.92-.06-.53-.12-1.07-.12-1.6,0-.03,0-.23,0-.1,0,.13,0-.07,0-.1,0-.13.02-.26.03-.39.02-.13.03-.26.06-.38.01-.06.02-.11.04-.17,0-.03.02-.07.02-.1-.03.1-.03.11-.01.05.04-.12.08-.24.13-.36.02-.05.04-.09.06-.14.04-.09-.09.13,0,0,0,0,.11-.15.11-.14,0,.02-.14.12,0,.01.09-.07.06-.03-.02,0,.14-.07-.17,0,0,0-.04,0-.08,0-.12-.01.07.02.07.02,0,0-.07-.03-.07-.03,0,0,.02,0,.03.02.05.03.1.06.19.13.29.19.33.19.69.23,1.03.12.41-.14.63-.69.43-1.14-.21-.46-.66-.71-1.09-.56.05-.02.33-.06.37.03-.01-.02-.11-.06-.14-.08-.1-.06-.19-.13-.28-.18-.35-.19-.75-.23-1.1-.1-.6.23-1,.84-1.21,1.47-.4,1.21-.37,2.49-.25,3.77.56-.11,1.12-.23,1.68-.34-.49-1.1-.97-2.2-1.43-3.3-.18-.43-.65-.73-1.07-.54-.39.17-.68.68-.49,1.14h0Z"/>
    <path class="cls-5" d="M340.37,215.29c.73.02,1.62.07,2.27-.21.79-.34.92-1.17.79-2.08-.11-.77-.42-1.63-1.12-2.07-.36-.23-.73-.27-1.1-.3-.4-.04-.81,0-1.17.14-1.38.57-1.67,2.32-1.5,3.89.09.85.28,1.72.79,2.47.41.6,1.04,1.1,1.7,1.38,1.7.71,3.57.05,3.93-1.6.1-.45-.11-.99-.59-1.25-.42-.23-.99-.11-1.1.34-.03.11-.06.22-.1.32,0,0-.06.12-.02.06.04-.07-.05.07-.06.08-.14.21-.15.21-.34.34-.04.03-.09.06-.14.09.11-.06-.02,0-.03.01-.09.03-.18.06-.28.09-.14.03.11,0-.03,0-.04,0-.09,0-.13,0-.06,0-.12,0-.18,0,.12,0-.02,0-.07-.01-.38-.08-.67-.22-.98-.52-.01-.01-.15-.16-.08-.08.06.07-.04-.06-.04-.06-.02-.02-.22-.32-.14-.19-.15-.26-.23-.5-.28-.76-.12-.53-.19-1.07-.18-1.53,0-.22.03-.46.07-.58.08-.26.1-.32.23-.51.03-.04.07-.09.1-.13-.03.03-.07.05.04-.02.03-.02.06-.05.1-.07.11-.07-.1.04.04-.02.22-.09.39-.1.66-.08.05,0,.13,0,.22.03.02,0,.17.03.17.04,0,.01-.08-.03-.08-.04-.03-.03-.14-.08-.06-.05.05.02,0,.03-.02-.03.02.05.05.11.07.16-.05-.13,0-.02,0,.06.03.13.05.26.07.39,0,0,.02.15.01.07,0-.09,0,.14,0,.16,0,.06,0,.12-.01.18.02-.11-.03,0-.02.02,0-.01.04-.08.04-.08-.02.02-.05.03-.07.05.04-.03.04-.03-.01-.01-.02,0-.19.05-.1.03.06-.01-.19.02-.17.02-.14.01-.28.03-.42.04-.32.02-.64.02-.97.01-.45-.01-.76.47-.68.94.09.51.54.86,1,.87t0,0Z"/>
  </g>
  <g>
    <g>
      <path class="cls-5" d="M352.56,191.9c-.83,3.37-1.44,6.74-1.7,10.1-.04.45.56.71,1.05.6.59-.13.9-.58.92-1.03.17-3.22.66-6.46,1.36-9.7.23-1.07-1.35-1.03-1.63.03h0Z"/>
      <path class="cls-5" d="M354.99,191.96s.27-.14.18-.1c-.09.04.16-.05.19-.06.05-.01.25-.03.07-.02.07,0,.15-.01.22-.01.06,0,.21.02.07,0,.08.01.16.03.24.05.03.01.24.11.11.03.06.03.12.06.17.1.01.01.16.15.06.04.05.05.08.1.13.15.04.07.05.07.02,0,.02.03.03.07.05.1.04.08.07.16.09.25-.03-.12.01.09.01.11,0,.08.01.16.01.24,0,.18.02-.06,0,.11-.02.1-.03.2-.05.3-.06.25-.19.54-.35.76-.26.36-.52.6-.88.92-.15.14-.31.27-.47.4-.09.07-.19.15-.29.22-.04.03-.08.06-.13.09.07-.04.05-.03-.05.03-.17.1-.35.2-.53.28.14-.06-.11.03-.14.04-.12.04-.25.06-.37.08-.48.07-.89.64-.87,1.04.02.48.46.65.96.58.91-.12,1.77-.66,2.48-1.25.75-.62,1.46-1.31,1.9-2.14.41-.76.56-1.68.39-2.41-.18-.81-.63-1.37-1.32-1.66-.68-.28-1.58-.17-2.38.3-.42.25-.7.76-.57,1.16.12.38.61.52,1.04.27h0Z"/>
    </g>
    <g>
      <path class="cls-5" d="M363.09,189.23c-.87-.27-1.78.52-2.3,1.39-.47.79-.97,1.67-1.23,2.53-.15.52-.23,1.01-.09,1.48.11.38.37.68.71.88.68.4,1.61.34,2.4-.05.86-.43,1.48-1.28,1.86-2.12.19-.43.18-.96-.24-1.17-.34-.17-.94-.06-1.15.39-.08.18-.18.36-.28.53-.05.09-.11.17-.17.26-.04.06-.14.18-.04.06-.13.16-.27.3-.42.43.17-.14-.08.05-.11.07-.06.04-.13.09-.19.11.22-.07-.04,0-.08.02-.04.01-.08.02-.12.03.13-.02.15-.03.05-.02-.02,0-.23.03-.23.01.13.01.14.01.05,0-.02,0-.04,0-.06,0-.03,0-.2-.02-.21-.05.11.04.13.05.05.01-.03-.02-.06-.03-.09-.05-.07-.05-.06-.04.03.03-.03-.02-.05-.05-.07-.07-.02-.02-.05-.05-.07-.08.06.09.07.11.05.06-.1-.15,0,.12-.02-.02-.01-.05-.02-.1-.02-.15,0,.1,0,.1,0,0,.02-.11.03-.21.05-.32-.04.18.04-.1.05-.14.07-.21.15-.41.24-.61.05-.11.1-.21.15-.32-.07.14.06-.12.08-.15.2-.38.39-.76.62-1.11.04-.05.03-.04-.02.02.04-.04.07-.08.11-.12.07-.07.07-.07-.01,0,.04-.03.08-.05.12-.08-.1.05-.1.05-.01.01.09-.03.08-.03-.03,0,.09,0,.08-.01-.03-.02.04,0,.08.01.12.03.39.12.91-.24,1.03-.68.13-.49-.07-.9-.48-1.02h0Z"/>
      <path class="cls-5" d="M363.44,190.45c-.17,1.41-.13,2.82.14,4.16.09.43.58.71,1.04.54.46-.18.75-.65.64-1.11-.07-.31-.13-.63-.18-.95-.02-.16-.04-.32-.06-.48,0-.06,0-.05,0,.04,0-.05,0-.1-.01-.15,0-.07-.01-.15-.01-.22-.04-.65-.02-1.31.04-1.96.04-.46-.35-.86-.75-.8-.45.06-.79.45-.85.93t0,0Z"/>
    </g>
    <g>
      <path class="cls-5" d="M370.57,188.31c-.75.03-1.51.15-2.12.74-.56.54-.83,1.33-.98,2.1-.14.72-.29,1.53-.03,2.21.17.44.48.82.92,1.01.41.17.84.21,1.28.2.88-.03,1.85-.16,2.43-.88.29-.35.26-.95-.11-1.25-.36-.3-.88-.29-1.19.08-.03.03-.05.06-.08.09.09-.08.1-.09.03-.03-.03.02-.06.05-.1.07.11-.05.12-.06.04-.02-.08.03-.15.06-.23.08-.04.01-.08.02-.12.03.12-.02.13-.03.04,0-.34.05-.67.07-1.02.08-.1,0-.09,0,.03,0-.04,0-.08,0-.13-.02-.04,0-.08-.02-.12-.03-.09-.03-.08-.02.03.01.01-.05-.27-.07-.04,0-.03-.03-.06-.05-.09-.08.07.1.08.11.03.03-.02-.03-.04-.07-.06-.1.05.12.06.13.02.04-.01-.04-.02-.08-.03-.12-.02-.1-.02-.08,0,.05-.03-.03-.02-.21-.02-.25,0-.09,0-.17,0-.26,0-.1,0-.09,0,.04,0-.04,0-.09.01-.13.01-.08.02-.17.03-.25.03-.17.05-.35.09-.52.03-.15.07-.3.11-.45.03-.09.03-.08-.01.03.01-.04.03-.08.05-.12.03-.08.07-.15.11-.23.05-.08.04-.07-.02.03.02-.03.05-.07.07-.1.03-.03.05-.06.08-.09-.09.08-.09.09-.02.02.03-.03.07-.05.11-.08.08-.05.07-.05-.02,0,.05-.05.17-.08.24-.1.04-.01.08-.03.12-.04-.11.02-.11.03-.02,0,.09-.01.17-.03.26-.04.17-.02.35-.02.52-.03.42-.01.79-.49.73-.95-.06-.5-.41-.83-.85-.82t0,0Z"/>
      <path class="cls-5" d="M371.24,189.35c-.32,1.6.39,3.05.87,4.55.47,1.5.75,3.12.69,4.68-.02.48-.02,1.46-.58,1.62-.64.18-1.62-.05-2.23-.23-.32-.1-.63-.22-.93-.37-.18-.09-.66-.3-.72-.51-.11-.41.94-.57,1.22-.63,1.16-.26.57-1.94-.55-1.67-.92.22-1.83.59-2.33,1.46-.5.88-.15,1.82.61,2.4.78.6,1.85.99,2.88,1.19.96.18,2.31.33,3.19-.12.97-.49,1.22-1.61,1.28-2.57.06-1.07-.05-2.17-.25-3.24-.21-1.09-.51-2.17-.9-3.21-.37-.97-.85-1.96-.67-3,.17-1.12-1.37-1.47-1.58-.35h0Z"/>
    </g>
    <path class="cls-5" d="M377.82,191.87c.74.06,1.63.14,2.28-.11.79-.3.91-1.14.8-2.03-.1-.73-.35-1.55-.99-2.04-.35-.27-.72-.36-1.09-.41-.44-.06-.86-.06-1.26.08-1.36.5-1.67,2.3-1.58,3.85.05.86.21,1.73.69,2.5.39.62,1.03,1.16,1.7,1.46,1.72.74,3.6.14,4-1.48.11-.44-.15-1-.62-1.25-.44-.24-.96-.1-1.08.34-.07.25-.08.28-.21.45-.07.1-.21.23-.4.34-.24.13-.57.16-.9.08-.31-.08-.62-.26-.93-.56.09.09-.11-.15-.14-.18-.04-.05-.07-.1-.11-.16.01.02.06.1,0,0-.14-.27-.2-.47-.26-.76-.11-.58-.16-1.06-.12-1.61.02-.25.04-.4.11-.62.06-.18.13-.31.23-.44,0,0,.12-.11.16-.15.01-.01.12-.08.03-.03.05-.03.11-.05.16-.07.13-.05.41-.05.56-.03.1.01.24.07.33.06.06,0,.03,0,0-.01-.07-.01-.04-.07.02,0-.11-.16-.08-.11-.02.03-.06-.16.02.12.04.19.01.06.02.12.03.17,0,.02.03.25.02.14,0-.1,0,.05,0,.06,0,.07,0,.15,0,.22,0,.02-.02.19,0,.1.01-.09-.05.12,0,0-.02.05-.08.06-.02.02.07-.04-.02,0-.05.01-.17.04-.08.02-.04.01-.07.01-.15.01-.23.02-.16.01-.32.02-.48.02-.32,0-.64,0-.97-.03-.44-.03-.73.49-.66.94.09.53.53.83.99.87t0,0Z"/>
  </g>
  <g>
    <path class="cls-5" d="M336.42,199.27c.92.07,2.05.19,2.85-.06.95-.29,1.05-1.18.83-2.18-.18-.84-.6-1.81-1.44-2.34-.43-.27-.86-.33-1.29-.39-.47-.06-.96-.04-1.37.1-1.59.58-1.96,2.47-1.79,4.16.1.92.31,1.87.96,2.72.51.67,1.32,1.25,2.19,1.61,2.23.9,4.67.44,4.99-1.33.09-.45-.21-1.04-.79-1.36-.52-.29-1.18-.22-1.28.23-.1.44-.28.68-.66.87-.18.09-.31.13-.61.17-.17.02.12,0-.06,0-.06,0-.11,0-.17,0-.08,0-.15-.01-.23-.02-.16-.02-.03,0-.12-.02-.51-.13-.92-.32-1.33-.68-.13-.11-.1-.08-.19-.18-.05-.06-.1-.12-.15-.18-.12-.16-.08-.1-.05-.06-.19-.28-.3-.58-.38-.88-.27-1.03-.42-2.28.13-2.96.09-.11.1-.12.18-.17.04-.03.08-.05.12-.07.13-.07-.1.03.07-.03.26-.09.53-.09.83-.06.1,0,.19.02.29.04.06.01.3.07.13.02,0,0-.02-.01-.03-.02-.06-.07-.07-.07-.02-.01.03,0,.04.07-.01-.02.03.06.06.12.09.18-.06-.13,0,.03.02.09.04.15.07.29.1.44.03.17.04.17.03.28,0,.07,0,.13,0,.2.01-.09-.02.03-.03.05.07-.09-.07,0-.08,0-.52.13-1.43.05-2.09.01-.51-.03-.86.44-.77.92.1.52.61.89,1.16.93t0,0Z"/>
    <path class="cls-5" d="M318.69,190.95c-.82,4.47-1.37,8.89-1.29,13.34.02,1.03,2.26.56,2.17-.49-.28-4.36.05-8.7.65-13.08.14-1.04-1.33-.8-1.53.23t0,0Z"/>
    <path class="cls-5" d="M314.63,197.55c3.28-.61,6.43-1.36,9.45-2.12.48-.12.77-.71.68-1.11-.1-.47-.53-.6-.99-.48-2.91.79-5.93,1.58-9.1,2.22-.49.1-.95.64-.98,1-.03.44.41.58.93.49h0Z"/>
    <path class="cls-5" d="M323.91,189.79c.01,4.67-.03,9.39.9,14.07.16.83,1.83.76,2.08-.06.29-.93.63-1.85,1.04-2.75.21-.46.44-.92.67-1.36.1-.18.35-.91.61-.99-.27.08.05.14.18.23.16.1.3.22.44.35.34.3.63.65.86,1.03.43.72.6,1.49.56,2.28-.07,1.13,2.12,1.13,2.11,0,0-1.18-.46-2.38-1.18-3.41-.67-.94-1.86-2.2-3.04-2.19-1.34.02-1.94,1.4-2.48,2.39-.7,1.32-1.32,2.66-1.81,4.03.69-.02,1.37-.04,2.06-.06-1.11-4.59-1.28-9.22-1.49-13.79-.05-1.07-1.49-.82-1.5.24h0Z"/>
  </g>
  <g>
    <path class="cls-5" d="M300.41,256.02c2.41-.48,4.78-.97,7.15-1.36.47-.08.87-.43.87-.94,0-.44-.39-.89-.85-.81-2.46.43-4.93.96-7.44,1.47-.47.1-.8.62-.74,1.04.07.47.53.68,1.01.59h0Z"/>
    <path class="cls-5" d="M303.07,249.12c.03,4.11.27,8.21.79,12.31.14,1.09,2.03.57,1.86-.52-.6-3.97-.93-7.93-1.05-11.91-.04-1.08-1.6-.96-1.6.12h0Z"/>
    <path class="cls-5" d="M312.85,254.49c-1.47.27-2.43,1.89-2.74,3.28-.15.67-.21,1.44.06,2.08.35.82,1.15,1.22,2.09,1.27,1.45.08,3-.43,4.02-1.28,1.09-.9,1.51-2.37,1.09-3.81-.45-1.52-1.99-2.77-3.45-2.59-.45.05-.86.43-.8.93.05.45.45.91.94.85.11-.01.21-.01.32-.01-.17,0,.06.02.12.03.05.01.1.03.16.04.13.04-.12-.06.01,0,.11.06.22.11.33.18-.13-.08.08.06.11.1.08.07.15.14.22.21-.1-.11.08.11.11.16.03.05.06.1.09.15-.07-.11,0,0,.02.05.04.09.07.19.1.29.06.18.02.07,0,.03.01.06.02.12.03.18.01.12.02.24.02.36,0-.02,0-.12,0-.02,0,.07-.02.15-.03.22-.06.37-.25.76-.46,1.02-.07.08-.14.15-.21.23-.01,0-.15.14-.09.08.06-.05-.06.05-.06.05-.21.16-.44.3-.69.41-.14.07.1-.04-.05.02-.05.02-.09.04-.14.05-.12.04-.25.08-.37.12-.13.04-.25.07-.38.1-.05.01-.1.02-.15.03-.09.02.06,0-.1.02-.23.03-.46.05-.7.05-.03,0-.21-.02-.1,0,.11.01-.07-.02-.09-.02-.04,0-.09-.02-.13-.03.08.03.09.03.03,0-.06-.03-.05-.02.01.02,0,0-.11-.1-.05-.03.06.07-.05-.07-.06-.08-.08-.12.03.11-.01-.03-.01-.04-.03-.08-.04-.13-.05-.17-.01-.07,0-.03,0-.06-.01-.12-.02-.18,0-.14,0-.28,0-.41,0-.11,0-.02,0,0,.01-.09.03-.19.05-.28.02-.12.05-.25.09-.37.02-.06.04-.12.06-.18-.04.1.03-.08.04-.09.06-.13.12-.26.19-.38.15-.27.2-.35.41-.59.03-.04.24-.23.16-.17.05-.04.1-.07.15-.1-.13.07.15-.04-.02,0,.46-.08.89-.4.83-.93-.05-.43-.46-.94-.94-.85t0,0Z"/>
  </g>
  <g>
    <path class="cls-5" d="M324.27,246.52c.13.98-.01,2-.1,3.01-.08,1.01-.15,2.02-.2,3.03-.11,2.06-.15,4.13-.12,6.19.01,1.09,1.95,1.11,1.9,0-.08-2.16-.09-4.31-.03-6.47.03-1.06.08-2.12.14-3.18.06-1.05.14-2.1-.02-3.11-.16-1.04-1.71-.51-1.58.53t0,0Z"/>
    <path class="cls-5" d="M325.93,253.53c.09-.07.19-.13.29-.19.03-.02.26-.12.09-.05.09-.04.19-.07.29-.09.04-.01.08-.02.12-.03-.1.01-.09.01.01,0,.08,0,.17-.02.25-.02.06,0,.11,0,.17,0-.09-.01-.09-.01.02,0,.08.01.16.03.24.04.03,0,.24.07.1.02.1.04.2.08.29.14.01,0,.21.14.09.05.07.06.14.12.21.19.03.03.06.06.08.09-.05-.06-.04-.05.01.03.04.07.09.14.13.21.03.05.05.1.07.15-.03-.08-.03-.07,0,.03.02.08.05.16.07.24.01.05.02.11.03.16.01.09.02.11,0,.05,0-.06,0-.04,0,.05,0,.06,0,.11,0,.17,0,.09-.01.17-.02.26-.01.11-.01.11,0,.02,0,.04-.02.08-.03.13-.02.1-.06.2-.09.29,0,.01-.12.26-.05.13-.05.11-.12.22-.19.32-.05.08-.11.15-.16.23-.07.09-.08.1-.03.04-.03.04-.06.07-.09.11-.29.32-.63.61-.99.87.11-.08-.11.08-.13.09-.11.08-.22.15-.33.22-.2.13-.39.25-.59.37-.44.26-.67.76-.43,1.18.22.38.84.56,1.29.29,1.55-.93,3.25-2.14,3.57-3.9.32-1.78-.6-3.56-2.33-3.91-.9-.18-1.96,0-2.77.6-.4.29-.64.74-.42,1.17.18.36.78.57,1.19.27h0Z"/>
    <path class="cls-5" d="M334.27,255.04c.85-.01,1.88,0,2.67-.31.92-.36,1.2-1.19,1.18-2.12-.01-.81-.23-1.75-.97-2.2-.4-.24-.87-.28-1.31-.28-.43,0-.9.06-1.3.23-1.63.73-2.2,2.56-2.23,4.22-.01.87.07,1.77.55,2.52.41.66,1.1,1.15,1.88,1.43,1.83.63,4.02-.13,4.64-1.8.16-.44.03-.97-.45-1.24-.42-.23-1.06-.13-1.23.32-.17.43-.37.7-.75.92-.19.11-.31.16-.58.22-.1.02-.03.01,0,0-.07.01-.14.02-.21.02-.07,0-.14,0-.21,0-.03,0-.16-.01-.06,0-.5-.06-.84-.22-1.18-.54-.12-.11-.23-.24-.34-.45-.09-.18-.16-.46-.19-.69-.07-.54-.09-1.14,0-1.67.07-.48.23-.94.5-1.26.12-.14.28-.28.37-.32.24-.12.48-.15.74-.15.1,0,.2,0,.3,0-.02,0,.37.03.2,0,.01,0-.11-.05-.01-.01.07.03-.02-.05.01.02,0,.02.06.2.04.1-.02-.08.02.16.02.16.02.23.03.51,0,.64-.01.06-.02.13-.04.19.03-.1-.07.08-.02.03.08-.06-.07.02-.08.03-.51.18-1.36.18-1.99.2-.48.01-.88.48-.87.94.01.49.44.84.94.83t0,0Z"/>
  </g>
  <g>
    <path class="cls-5" d="M378.16,252.82c.93.05,2.05.12,2.91-.2,1.01-.37,1.23-1.35,1.19-2.35-.03-.85-.29-1.8-1.09-2.28-.41-.25-.87-.29-1.32-.33-.48-.04-.97-.02-1.43.13-1.84.61-2.37,2.74-2.36,4.57,0,.95.14,1.91.64,2.76.43.72,1.16,1.32,1.97,1.65,2,.81,4.33.03,5-1.83.16-.43-.02-.97-.49-1.21-.43-.22-1.03-.09-1.19.34-.33.87-1.25,1.42-2.17,1.24-1.06-.21-1.76-1-1.91-2.04-.16-1.12-.2-2.59.59-3.43.35-.37.82-.45,1.34-.42.12,0,.23.02.35.04.07.01.14.02.21.05.12.04.03.02.02,0-.1-.07.02.1-.02.01.04.1.04.1.07.27.04.3.06.58.02.85-.03.21-.05.28-.25.33-.68.17-1.53.11-2.24.07-.48-.02-.84.46-.81.91.04.51.48.83.96.86t0,0Z"/>
    <path class="cls-5" d="M353.89,251.56c-.35,1.59-.49,3.18-.44,4.75.01.44.59.72,1.05.58.54-.16.8-.59.78-1.07-.03-.64-.02-1.31.05-2.07.06-.74.17-1.49.32-2.23.09-.45-.31-.87-.75-.84-.5.03-.89.4-.99.88h0Z"/>
    <path class="cls-5" d="M355.2,248.59c1.1-.03,1.31-1.75.24-1.72-1.07.03-1.34,1.75-.24,1.72h0Z"/>
    <path class="cls-5" d="M359.04,251.03c-.31,3.23-.61,6.46-.92,9.7-.11,1.11,1.83,1.08,1.91-.03.25-3.24.5-6.48.75-9.72.08-1.11-1.63-1.06-1.74.06t0,0Z"/>
    <path class="cls-5" d="M360.62,251.18c.11-.03.22-.05.33-.08.03,0,.37-.06.18-.04.22-.03.45-.06.67-.07.2-.01.39-.02.59-.01.05,0,.09,0,.14,0-.11-.01-.12-.01-.02,0,.09.02.18.03.27.05.09.02.17.05.26.08-.2-.07.06.04.09.06.04.02.07.05.11.07-.08-.06-.09-.06-.02-.01.03.03.05.05.08.08.06.07.05.06-.02-.04.05.02.09.14.12.19.02.03.03.07.05.1-.04-.12-.05-.13-.02-.04.02.08.04.15.05.22,0,.04.01.08.02.12,0-.13-.01-.15,0-.05,0,.08,0,.16,0,.24,0,.04,0,.08-.01.12-.02.1-.01.08.01-.05.03.03-.12.43-.16.47.06-.12.06-.13.02-.04-.02.04-.04.07-.06.11-.04.07-.09.14-.14.21.14-.18-.06.05-.09.08-.07.07-.14.13-.21.19-.08.06-.07.06.02-.01-.04.03-.08.05-.12.08-.08.05-.16.1-.25.15-.08.05-.17.09-.26.13.22-.1-.07.02-.12.04-.18.06-.37.12-.56.16-.06.01-.34.1-.11.02-.08.03-.2.02-.28.03-.47.04-.95.41-.97.89-.02.45.33.88.84.84,1.68-.14,3.42-.96,4.03-2.58.28-.74.24-1.56-.06-2.24-.32-.72-1.03-1.18-1.78-1.32-.94-.17-1.95-.03-2.91.21-.45.11-.8.66-.7,1.08.11.46.53.69,1.02.57t0,0Z"/>
    <path class="cls-5" d="M367.96,250.48c.09,3.26.24,6.53.49,9.79.08,1.11,2.01,1.08,1.91-.04-.3-3.27-.51-6.54-.66-9.81-.05-1.12-1.76-1.06-1.74.07t0,0Z"/>
    <path class="cls-5" d="M370.06,249.88c-.06.2-.17.34-.34.4.04-.01.08-.03.12-.03-.22.06.11,0,.16-.01.19-.02.39-.03.58-.03.03,0,.36.03.18,0,.11.01.21.03.32.06.1.02.21.05.31.09-.16-.06.05.03.08.05.03.02.29.18.16.09.08.06.15.14.23.21.07.07.07.08,0,0,.03.04.06.08.09.13.04.06.08.13.12.2.05.09.05.09,0,0,.02.05.04.1.05.15.03.1.06.2.08.3-.05-.2,0,.11,0,.15,0,.09,0,.18,0,.27,0,.07,0,.05,0-.04,0,.05-.02.1-.03.15-.02.1-.05.2-.08.3-.03.1-.03.1,0,0-.02.05-.04.09-.07.14-.04.08-.09.16-.13.24-.02.03-.04.07-.06.1.06-.08.06-.07,0,0-.07.08-.13.16-.21.24-.07.08-.15.15-.23.21.14-.12-.08.05-.11.07-.39.26-.61.35-1.1.45-.05.01-.09.02-.14.03.08-.01.07-.01-.04,0-.12.01-.25.03-.37.03-.12,0-.25,0-.37,0-.03,0-.37-.03-.23-.01-.46-.05-.99.15-1.11.65-.1.42.12,1,.63,1.06,1.12.13,2.22.01,3.24-.47.81-.39,1.53-1.09,1.87-1.9.41-.96.38-1.99-.08-2.93-.42-.87-1.22-1.46-2.12-1.66-.51-.12-1.04-.13-1.56-.07-.69.08-1.27.26-1.55,1-.16.43.18.97.6,1.05.5.09.9-.19,1.06-.65t0,0Z"/>
    <g>
      <path class="cls-5" d="M388.38,246.84c-.91-.19-1.68.09-2.28.68-.53.53-.79,1.34-.84,2.14-.05.77,0,1.69.38,2.45.47.93,1.32,1.46,2.3,1.72,1.04.28,2.15.24,3.05-.12.41-.16.66-.62.39-1.11-.23-.43-.79-.81-1.22-.63-.18.07-.37.14-.57.18-.06.01-.11.02-.17.03.09-.01.08,0-.03,0-.09,0-.18.02-.27.02-.12,0-.24,0-.36,0-.03,0-.29-.02-.12,0-.21-.02-.43-.07-.64-.14-.09-.03-.18-.05-.26-.08.18.07-.14-.07-.17-.08-.04-.02-.22-.16-.09-.05-.05-.04-.09-.07-.13-.11.07.08.07.08,0,0-.03-.04-.16-.24-.05-.06-.05-.08-.09-.17-.12-.25-.02-.05-.09-.31-.04-.11-.02-.09-.04-.18-.06-.27-.13-.71-.09-1.27.15-1.87.07-.17-.05.05.04-.08.06-.08.11-.15.17-.22.11-.14-.08.04.05-.05.08-.05.15-.11.23-.16.18-.11-.14.04.06-.03.09-.03.18-.06.27-.08-.15.03,0,0,.06,0,.05,0,.1,0,.15,0-.11-.01-.11-.01,0,0,.46.1.92-.15.93-.64,0-.46-.33-1-.81-1.1h0Z"/>
      <path class="cls-5" d="M387.98,240.72c.1,2.06.27,4.15.81,6.23.51,2.02,1.59,3.96,2.11,5.98.29,1.15,2.11,1.17,1.79,0-.54-1.96-1.6-3.82-2.15-5.77-.57-2-.8-4.01-.93-5.99-.08-1.14-1.69-1.6-1.63-.45h0Z"/>
    </g>
    <path class="cls-5" d="M345.22,252.06c.22,1.41.3,2.88.22,4.37-.02.42.46.66.88.61.47-.05.88-.41.97-.83.15-.68.18-1.35.32-2.03.03-.16.08-.32.12-.49.04-.17-.04.1,0,0,.03-.07.05-.13.08-.2.05-.12.11-.24.17-.36.02-.03.15-.24.02-.05.04-.06.08-.12.13-.18.04-.06.09-.11.14-.17.02-.02.17-.16.06-.07-.1.09.08-.07.1-.09.05-.04.1-.07.15-.11-.18.13,0,0,.05-.02.07-.04.14-.07.21-.1-.2.09.02,0,.06-.01.07-.02.15-.03.22-.05.17-.04-.09,0,.02,0,.07,0,.15,0,.22-.01.06,0,.12,0,.18,0,.08,0,.21.02.06,0,.29.05.56.12.82.22.4.15,1.02-.19,1.19-.61.2-.49,0-.88-.43-1.04-.67-.26-1.42-.34-2.2-.19-.77.15-1.51.62-2.06,1.24-1.18,1.32-1.13,2.86-1.48,4.32.62-.07,1.23-.15,1.84-.22.06-1.5-.05-2.96-.29-4.38-.07-.41-.43-.74-.94-.59-.44.13-.92.6-.85,1.04t0,0Z"/>
  </g>
  <g>
    <path class="cls-5" d="M319.25,271.29c-1.37.59-2.47,1.88-3.02,3.19-.31.74-.53,1.57-.35,2.3.18.73.69,1.34,1.42,1.71,1.42.72,3.37.59,4.79-.42,1.28-.89,1.9-2.47,1.6-3.8-.35-1.53-1.88-2.63-3.52-2.39-.46.06-.95.37-.99.87-.04.42.27.9.78.84.13-.02.25-.03.37-.03.07,0,.14,0,.2,0-.04,0-.16-.03,0,0,.1.02.21.05.31.08.24.06-.08-.04.05.02.06.03.12.05.18.08.06.03.11.06.17.1.03.02.17.12.05.03.08.06.16.13.23.21.02.02.2.25.12.13.08.12.14.24.2.37.05.12-.03-.11,0,.01.02.06.03.13.05.19.01.05.03.33.03.17,0,.12,0,.24-.02.36,0,.05-.02.11-.03.16-.01.06,0,.05,0-.03-.01.04-.02.08-.04.12-.04.12-.08.24-.14.36-.02.05-.05.1-.08.15.07-.13,0,0-.02.02-.08.11-.15.22-.23.32-.03.03-.16.17-.05.06-.05.05-.11.1-.16.15-.06.05-.12.1-.17.14-.02.02-.15.1-.02.02-.11.07-.22.13-.33.19-.18.09-.43.17-.76.23-.03,0-.19.02-.03,0-.06,0-.13.01-.19.01-.14,0-.28,0-.42,0-.02,0-.21-.02-.11,0,.13.02-.17-.03-.15-.03-.15-.03-.29-.07-.43-.12.13.05-.14-.07-.19-.09-.05-.03-.1-.06-.15-.09.02.01-.21-.15-.12-.08-.17-.14-.27-.27-.36-.46-.06-.13-.08-.36-.07-.51.01-.14.04-.29.07-.43.01-.06.03-.13.05-.19-.04.14.04-.11.04-.12.1-.28.22-.54.37-.81.09-.16.04-.06.02-.03.05-.08.1-.15.15-.23.09-.12.18-.24.28-.36-.01.02.18-.21.1-.12-.06.07.09-.09.11-.11.12-.11.25-.22.38-.32.02-.01.17-.12.08-.06-.06.04.14-.08.17-.1.14-.08.29-.15.45-.22.46-.2.63-.82.46-1.18-.21-.43-.69-.47-1.15-.28h0Z"/>
    <path class="cls-5" d="M325.77,271.84c-.24,1.12-.3,2.21-.14,3.32.14,1,.5,1.95,1.42,2.54,1.96,1.24,4.3-.77,4.94-2.44.42-1.04.5-2.1.28-3.19-.09-.45-.7-.72-1.11-.57-.49.18-.68.63-.59,1.11.03.17,0-.09.01.08,0,.08.02.16.02.24.01.17,0,.34,0,.52,0,.04,0,.08,0,.12,0-.01.02-.14,0-.04-.01.08-.02.16-.04.24-.03.18-.08.36-.14.54-.02.08-.05.15-.08.23-.04.1,0-.01.01-.03-.02.04-.03.07-.05.11-.07.16-.16.31-.25.46-.04.07-.09.14-.13.2-.09.14.05-.05-.06.08-.11.14-.23.27-.36.39-.06.06-.12.11-.19.17-.03.03-.07.06-.1.08.02-.01.09-.06,0,0-.08.05-.15.1-.24.15-.04.02-.28.13-.15.08-.1.04-.2.06-.31.09-.11.03,0,0,.03,0-.04,0-.09,0-.13,0-.1.01,0,0,.02,0-.04,0-.08-.01-.12-.02-.04,0-.08-.02-.12-.03.09.03.07.03,0,0-.05-.03-.19-.13-.08-.04-.06-.05-.12-.1-.18-.15-.12-.11.03.06-.06-.06-.06-.08-.11-.17-.16-.26-.02-.04-.04-.08-.06-.12,0,.02.04.1,0,0-.03-.08-.06-.16-.08-.25-.06-.19-.1-.38-.14-.57-.15-.77-.14-1.82.01-2.6.09-.45-.1-.96-.59-1.04-.42-.07-.99.18-1.1.66h0Z"/>
    <path class="cls-5" d="M335.29,264.97c.95,3.81,2.02,7.64,3.21,11.49.35,1.13,2.12.65,1.74-.48-1.28-3.88-2.43-7.73-3.46-11.56-.3-1.13-1.76-.56-1.49.55t0,0Z"/>
    <path class="cls-5" d="M334.89,271.6c1.9-.25,3.77-.59,5.55-1.03.43-.1.64-.67.42-1.11-.23-.49-.7-.74-1.15-.62-1.65.43-3.26.75-4.97.99-.44.06-.85.42-.8.92.05.44.45.92.94.85h0Z"/>
  </g>
  <g>
    <path class="cls-5" d="M349.62,273.77c1.14-.05,1.21-1.77.11-1.7-1.09.03-1.26,1.71-.11,1.7h0Z"/>
    <path class="cls-5" d="M350.07,278.02c1.23-.03,1.28-1.77.09-1.71-1.18.02-1.33,1.72-.09,1.71h0Z"/>
    <path class="cls-5" d="M354.62,267.38c-.84.6-1.2,1.69-1.36,2.69-.21,1.24-.41,2.52-.3,3.74.18,2.07,1.47,4.12,3.96,4.55.52.09,1.03-.11,1.13-.6.09-.44-.24-1.03-.74-1.13-1.63-.3-2.47-1.74-2.6-3.16-.09-.96,0-1.95.13-2.92.07-.59.12-1.39.64-1.74.39-.25.46-.88.23-1.25-.25-.42-.72-.44-1.1-.18h0Z"/>
  </g>
  <g>
    <path class="cls-3" d="M456.96,334.69c-1.58-20.31-11.21-25.52-11.21-25.52-13.31-11.41-18.64-14.56-31.96-25.97-2.86-1.35-4.72-2.18-7.23-2.14,0,1.88-.36,4.48-1.47,6.89s-1.09,2.47-4.55,5.24c1.28,2.86,3.06,5.13,5.39,8.12,7.59,7.28,12.3,17.48,12.94,27.97,0,0-1.46,32.04,25.44,29.4"/>
    <path class="cls-5" d="M459.46,334.69c-.74-9.12-3.13-19.77-10.35-26.1-.62-.55-1.3-1.01-1.96-1.5-.04-.03-.09-.05-.12-.07-.06-.04.14.08.12.06-.44-.34-.85-.73-1.28-1.09-1.44-1.22-2.9-2.44-4.36-3.64-4.73-3.88-9.58-7.6-14.38-11.4-2.99-2.36-5.94-4.77-8.85-7.22-.84-.71-1.67-1.44-2.52-2.14-.98-.81-2.2-1.26-3.37-1.75-1.87-.78-3.77-1.28-5.81-1.28-1.36,0-2.49,1.15-2.5,2.5-.02,2.36-.59,4.63-1.66,6.73-.15.29-.31.56-.47.83-.23.4.2-.22,0,.02-.11.13-.23.26-.35.38-.86.88-1.86,1.63-2.82,2.4s-.82,2.09-.39,3.03c1.01,2.19,2.36,4.17,3.81,6.08.81,1.07,1.6,2.16,2.55,3.11.86.86,1.68,1.75,2.46,2.68,2.91,3.47,5.23,7.54,6.78,11.79,1.29,3.53,2.32,7.43,2.38,11.21.01.72-.01,1.44.01,2.16.3,8.43,2.56,17.75,8.82,23.79,5.12,4.94,12.18,6.55,19.11,5.91,1.34-.13,2.5-1.06,2.5-2.5,0-1.25-1.15-2.63-2.5-2.5-1.68.16-3.38.21-5.07.08-.36-.03-.72-.06-1.09-.11.36.04-.08-.01-.12-.02-.21-.03-.43-.07-.64-.11-.7-.13-1.39-.29-2.07-.49-1.47-.43-1.91-.6-3.24-1.34-.54-.3-1.07-.63-1.57-.98-.1-.07-.7-.51-.52-.37.13.1-.42-.35-.56-.48-.89-.77-1.69-1.63-2.43-2.55-.29-.36-.04-.05.02.02-.08-.11-.16-.22-.24-.33-.18-.25-.35-.5-.52-.75-.32-.48-.62-.97-.9-1.47s-.54-1-.79-1.51c-.12-.24-.22-.48-.34-.72-.06-.12-.11-.24-.16-.36-.12-.28.16.41-.01-.04-.4-1.02-.77-2.05-1.08-3.11-.57-1.93-.93-3.89-1.26-5.88-.05-.3.06.53-.02-.19-.02-.2-.05-.4-.07-.6-.04-.4-.08-.8-.12-1.2-.06-.68-.1-1.37-.13-2.05-.17-4.4-.61-8.68-1.93-12.94-1.57-5.03-3.99-9.8-7.19-13.99-1.63-2.13-3.62-3.94-5.25-6.05s-3.19-4.29-4.31-6.74l-.39,3.03c1.77-1.42,3.5-2.76,4.52-4.84,1.41-2.86,2.21-5.87,2.24-9.06l-2.5,2.5c1.44,0,2.77.38,4.1.94.74.31,1.47.63,2.11,1.11.86.64,1.66,1.41,2.48,2.1,2.52,2.11,5.07,4.19,7.65,6.24,4.45,3.53,8.97,6.98,13.38,10.57,1.27,1.03,2.54,2.07,3.8,3.13,1.46,1.22,2.86,2.6,4.41,3.7.08.06.17.1.25.15.26.18.94.83.26.16.72.7,1.49,1.31,2.16,2.06.22.25.44.51.65.77.07.09.44.58.06.07.12.15.23.31.34.46.55.76,1.05,1.54,1.51,2.35,2.93,5.13,4.26,11.28,4.75,17.34.11,1.35,1.07,2.5,2.5,2.5,1.27,0,2.61-1.15,2.5-2.5h0Z"/>
  </g>
  <g>
    <path class="cls-3" d="M79.66,292.99c5.92-19.49,16.45-22.51,16.45-22.51,6.58-3.52,13-6.96,19.39-10.38,8.63-4.62,7.9-4.38,11.69-6.33,3.11-1.05,12.66-8.21,19.05-.14,6.38,8.07-8.32,17.47-8.9,17.8-3.52,2.02-11.19,8.33-14.69,14.02-2,3.26-3.57,6.79-4.62,10.47,0,0-5.47,31.6-31.18,23.23"/>
    <path class="cls-5" d="M82.07,293.65c2.14-6.96,5.35-13.76,10.84-18.39.21-.18.42-.35.64-.52-.42.33-.04.03.17-.11.38-.27.76-.53,1.16-.77.53-.33,1.08-.6,1.64-.88s-.67.25-.02.01c.09-.03.17-.06.26-.09,2.17-.85,4.23-2.19,6.29-3.29,7.54-4.04,15.09-8.06,22.58-12.18.81-.44,1.69-.82,2.47-1.31.4-.26-.39.15.17-.09.38-.16.76-.32,1.13-.49.61-.28,1.2-.59,1.8-.88,2.61-1.29,5.72-2.68,8.61-2.26,1.56.23,3.02,1.12,4.16,2.4.26.29.48.58.69.91.12.19.23.38.33.58.03.05.18.44.05.11.12.3.2.62.27.94.11.49.03.15.02.04.02.23.03.47.03.7,0,.16-.01.31-.02.47-.04.73.07-.28-.02.15-.07.35-.16.7-.27,1.04-.24.74-.29.83-.76,1.64-.82,1.41-1.43,2.13-2.59,3.32-.96.99-1.99,1.91-3.06,2.77-.13.11-.27.21-.4.32.06-.05.4-.31.05-.04-.19.14-.38.28-.57.42-.35.25-.7.5-1.06.74-2.33,1.56-4.61,3.1-6.75,4.92-3.46,2.93-6.77,6.24-9.22,10.08-2.19,3.43-4.13,7.46-5.06,11.44-.59,2.51-1.24,4.96-2.19,7.37-.08.21-.17.43-.26.64-.26.64.08-.17-.09.22-.24.53-.47,1.06-.73,1.59-.51,1.05-1.06,2.07-1.66,3.07-.3.49-.6.97-.92,1.43-.15.22-.31.45-.47.66-.1.14-.2.27-.3.41-.18.24.25-.31-.05.06-.78.97-1.61,1.9-2.52,2.75-.43.41-.89.79-1.35,1.16-.33.26.47-.34-.08.06-.12.08-.23.17-.34.25-.29.2-.59.4-.89.59-.52.32-1.05.62-1.6.89-.1.05-.99.45-.5.25-.34.14-.69.27-1.04.39-2.83.97-5.13,1.15-8.27.75-1.24-.16-3.31-.67-4.82-1.15-3.07-.98-4.39,3.84-1.33,4.82,6.53,2.09,13.69,2.16,19.72-1.41,4.67-2.77,8.14-7.24,10.54-12.04,1.67-3.34,2.97-6.9,3.79-10.54,1.5-6.69,5.11-12.54,9.99-17.29,2.6-2.53,5.38-4.82,8.46-6.73,1.85-1.15,3.6-2.55,5.2-4.01,2.5-2.28,4.77-5,5.89-8.23,1.31-3.74.15-7.52-2.54-10.32-3.22-3.35-7.72-4.21-12.13-3.17-1.76.42-3.45,1.12-5.09,1.88-.66.31-1.32.63-1.97.96-.31.15-.62.31-.93.46-.19.09-1.05.44-.33.16-1.96.75-3.81,1.92-5.64,2.93-4.13,2.29-8.3,4.49-12.46,6.72l-7.96,4.26-3.91,2.09c-.36.19-.75.36-1.09.58,0,0-.72.43-.28.22-.02,0-.04.01-.06.02-1.14.53-2.26.95-3.32,1.63-5.5,3.53-9.39,9.25-12.01,15.13-1.09,2.43-2.01,4.92-2.79,7.47-.95,3.08,3.88,4.4,4.82,1.33h0Z"/>
  </g>
  <path class="cls-5" d="M93.19,272.76c.13-2.64.16-5.25-.22-7.87s-1.41-5.17-3.11-7.34c-.81-1.03-2.7-.91-3.54,0-1.01,1.1-.86,2.43,0,3.54-.35-.45.17.26.22.35.15.23.29.47.42.72s.25.49.36.74c-.25-.55.09.26.13.37.18.53.33,1.06.45,1.61.06.27.11.55.16.83.02.14.05.28.07.42-.04-.28-.04-.32-.02-.14.22,2.27.19,4.51.08,6.78-.06,1.31,1.2,2.56,2.5,2.5,1.41-.06,2.43-1.1,2.5-2.5h0Z"/>
  <g>
    <path class="cls-2" d="M145.26,256.94c-.23-1.4-1.14-2.59-2.13-3.62-.39-.41-.81-.81-1.31-1.08-1.29-.69-2.91-.38-4.21.29-1.93.97-4.52,1.97-6.45,2.95-1.31.66-2.82,1.62-2.81,3.09,0,.98.71,1.8,1.38,2.52,1.09,1.18,2.2,2.38,3.55,3.27,1.35.88,2.99,1.43,4.58,1.18,1.56-.25,2.9-1.22,4.1-2.25,1.88-1.63,3.69-3.89,3.3-6.35Z"/>
    <path class="cls-5" d="M147.67,256.27c-.37-1.91-1.61-3.58-2.97-4.93-1.7-1.68-3.85-2.31-6.19-1.8-1.81.4-3.55,1.49-5.25,2.23-1.55.68-3.2,1.3-4.61,2.26-1.83,1.25-3.16,3.15-2.69,5.46.39,1.94,2.03,3.47,3.38,4.81,3.07,3.05,7.19,4.9,11.36,2.89,1.8-.87,3.49-2.36,4.75-3.9,1.46-1.78,2.61-3.99,2.3-6.36-.17-1.34-1.02-2.5-2.5-2.5-1.22,0-2.68,1.15-2.5,2.5.04.31.06.6.05.91-.01.42.08-.31-.01.1-.03.13-.07.25-.1.37,0,.04-.15.45-.02.13-.05.12-.11.24-.17.36-.17.32-.36.62-.56.91-.26.36.17-.2-.11.14-.09.11-.18.21-.27.31-.21.24-.44.47-.67.69s-.46.43-.7.64c-.14.12-.28.24-.43.36-.02.01-.34.26-.16.13-.26.2-.54.38-.82.54-.09.05-.76.39-.52.29-.2.08-.71.23-.74.23.02,0-.75.02-.74.03-.95-.09-2.14-.74-2.87-1.37-1.01-.88-2.05-1.86-2.87-2.92.08.1-.29-.5-.29-.5.06-.02.16.66.08.36-.09-.32,0,.17-.05.09s.23-.3,0-.04c.1-.12.22-.22.33-.33s.27-.19.06-.05c2.18-1.49,4.85-2.29,7.22-3.44.16-.08.32-.16.47-.23.04-.02.39-.17.17-.08.17-.07.36-.11.53-.17.07-.02.42-.1.15-.06.18-.03.36-.02.54-.02.11,0,.4.05.14.01.4.07.3.09.16.03.01,0,.37.23.19.1.33.24.62.59.89.89.22.24.42.49.46.54.51.71.61.96.75,1.69.26,1.33,1.85,2.08,3.08,1.75,1.39-.38,2-1.75,1.75-3.08Z"/>
  </g>
  <path class="cls-5" d="M414.24,395.5c-.12.31-.06.24.05-.01.12-.29-.35.39.02-.04.2-.24.41-.47.62-.7.44-.48.88-.95,1.33-1.41.95-.98,1.94-1.92,2.97-2.82.48-.43.98-.85,1.47-1.26.25-.21.5-.41.75-.61.14-.11.28-.22.42-.33.23-.18-.28.21.09-.07,1.09-.82,2.21-1.61,3.35-2.35s1.65-2.25.9-3.42c-.7-1.09-2.25-1.66-3.42-.9-2.55,1.66-4.99,3.52-7.27,5.55-1.07.95-2.11,1.95-3.1,2.99-1.18,1.23-2.39,2.44-3,4.06-.46,1.23.51,2.79,1.75,3.08,1.42.32,2.58-.43,3.08-1.75h0Z"/>
  <g>
    <path class="cls-2" d="M405.41,286.53c.29-1.13.27-2.69,1.14-3.46.35-.31-.28-.85.15-1.04,1.11-.47,2.41-.1,3.43.54,1.51.93,3.56,1.94,5.07,2.87,1.03.64,2.19,1.53,2.08,2.73-.07.8-.71,1.43-1.31,1.97-.98.89-1.98,1.79-3.14,2.42-1.17.63-2.55.96-3.84.64-1.26-.31-2.29-1.2-3.2-2.14-1.43-1.47-.89-2.55-.39-4.54Z"/>
    <path class="cls-5" d="M407.82,287.2c.1-.42.16-.86.24-1.29.02-.14.36-1.24.32-1.29-.16.35-.17.41-.05.18.15-.22.11-.17-.12.14.07-.06.13-.12.18-.19.31-.31.52-.68.64-1.1.16-.53.15-1,.04-1.53-.2-.95.2.48-.31,1.24l-.9.9c-.06.04-.62.2-.15.07.06-.02.38-.09.03-.02s.04.03.13.02c.29-.04-.19.02-.2-.04.02.09.72.07.74.2,0,0-.42-.21-.15-.07.14.08.29.14.43.22.87.5,1.73,1.01,2.61,1.48s1.77.96,2.63,1.49c.17.1.33.21.5.32.06.04.15.13.21.15-.07-.02-.42-.37-.1-.07.06.06.13.11.19.17l.06.06c.14.16.15.16.02,0-.47-.08.17-.14,0,0,.1.19.11.18.02-.02-.07-.18-.08-.21-.04-.08.07.12.03.42.03.05,0-.18-.02-.31.03-.5-.12.5.07-.09.07-.09.01.04-.21.31-.19.31-.04,0,.33-.34.09-.14-.09.08-.17.19-.26.27-.19.18-.38.36-.58.53-.36.33-.73.66-1.11.97-.06.05-.41.32-.16.13.23-.17-.05.03-.08.06-.26.18-.52.35-.79.51-.18.1-.43.31-.63.33.06,0,.51-.18.04-.02-.09.03-.19.07-.28.1-.04.01-.64.22-.68.17.01.02.48-.03.07-.01-.13,0-.26.01-.39.01-.08,0-.3.01-.39-.02.06.02.54.13.08-.01-.09-.03-.19-.05-.28-.08s-.44-.21-.15-.05,0-.01-.05-.04c-.11-.07-.22-.13-.33-.2-.06-.04-.31-.17-.32-.22.04.11.31.26.04.03-.42-.36-.8-.76-1.19-1.15-.21-.21.15.16.12.16-.03.01-.17-.3-.2-.33-.21-.23.19.49.09.2s.08-.27,0,.2c.02-.12.04-.44,0-.54.01.04-.12.65-.03.24.02-.1.04-.2.06-.3.12-.52.27-1.02.4-1.53.32-1.27-.41-2.77-1.75-3.08s-2.73.39-3.08,1.75-.73,2.57-.55,3.93c.21,1.56,1.2,2.78,2.35,3.79,1.38,1.22,2.92,2.07,4.77,2.22,1.62.13,3.3-.39,4.7-1.19,1.32-.75,2.5-1.8,3.61-2.84,1.36-1.27,2.28-3,1.76-4.9-.79-2.86-4.17-4.19-6.53-5.49-1.6-.88-3.06-1.89-4.94-2.06-.93-.08-2.01.09-2.82.59s-1.32,1.39-1.3,2.32c0,.24.05.53.1.76.15.75-.12-.14.07-.7l.64-1.1c-.66.81-1.18,1.51-1.45,2.54-.18.69-.24,1.41-.41,2.11-.3,1.27.4,2.77,1.75,3.08s2.75-.39,3.08-1.75Z"/>
  </g>
</svg>