<svg id="Xnix_Line_Pause" data-name="Xnix/Line/Pause" xmlns="http://www.w3.org/2000/svg" width="24" height="24" viewBox="0 0 24 24">
  <path id="Vector" d="M0,1.125v5.75A1.118,1.118,0,0,0,1.111,8H2.222A1.118,1.118,0,0,0,3.333,6.875V1.125A1.118,1.118,0,0,0,2.222,0H1.111A1.118,1.118,0,0,0,0,1.125Z" transform="translate(7 8)" fill="none" stroke="#fff" stroke-linecap="round" stroke-linejoin="round" stroke-width="1.5"/>
  <path id="Vector-2" data-name="Vector" d="M6.667,1.125v5.75A1.118,1.118,0,0,0,7.778,8H8.889A1.118,1.118,0,0,0,10,6.875V1.125A1.118,1.118,0,0,0,8.889,0H7.778A1.118,1.118,0,0,0,6.667,1.125Z" transform="translate(7 8)" fill="none" stroke="#fff" stroke-linecap="round" stroke-linejoin="round" stroke-width="1.5"/>
</svg>
