<svg id="Xnix_Line_" data-name="Xnix/Line/" xmlns="http://www.w3.org/2000/svg" width="24" height="24" viewBox="0 0 24 24">
  <path id="Vector" d="M5.685,11A1.239,1.239,0,1,1,6.87,9.762,1.212,1.212,0,0,1,5.685,11Z" transform="translate(5 5)" fill="none" stroke="#000" stroke-linecap="round" stroke-linejoin="round" stroke-width="1.5"/>
  <path id="Vector-2" data-name="Vector" d="M6.87,9.762V5m0,0V4.143A1.074,1.074,0,0,1,7.981,3h.642a.9.9,0,0,1,.092,1.8ZM4.308,0H9.692A4.332,4.332,0,0,1,14,4.356V9.644A4.332,4.332,0,0,1,9.692,14H4.308A4.332,4.332,0,0,1,0,9.644V4.356A4.332,4.332,0,0,1,4.308,0Z" transform="translate(5 5)" fill="none" stroke="#000" stroke-linecap="round" stroke-linejoin="round" stroke-width="1.5"/>
</svg>
