<svg id="Xnix_Line_Backword" data-name="Xnix/Line/Backword" xmlns="http://www.w3.org/2000/svg" width="24" height="24" viewBox="0 0 24 24">
  <path id="Vector" d="M6.849-3.632a1.251,1.251,0,0,1-.172.147L2.157-.263A1.346,1.346,0,0,1,0-1.127V-7.873a1.346,1.346,0,0,1,2.157-.864L6.678-5.213a1.252,1.252,0,0,1,.172.147m0,1.434v2.505a1.346,1.346,0,0,0,2.157.864l4.521-3.222a1.026,1.026,0,0,0,0-1.728L9.006-8.737a1.346,1.346,0,0,0-2.157.864v2.807m0,1.434V-5.066" transform="translate(19 8) rotate(180)" fill="none" stroke="#fff" stroke-linecap="round" stroke-linejoin="round" stroke-width="1.5"/>
</svg>
