<svg id="Xnix_Line_Music" data-name="Xnix/Line/Music" xmlns="http://www.w3.org/2000/svg" width="24" height="24" viewBox="0 0 24 24">
  <path id="Vector" d="M2.133,14a2.167,2.167,0,0,1,0-4.333,2.167,2.167,0,0,1,0,4.333Z" transform="translate(4 5)" fill="none" stroke="#000" stroke-linecap="round" stroke-linejoin="round" stroke-width="1.5"/>
  <path id="Vector-2" data-name="Vector" d="M13.867,12.764A2.167,2.167,0,1,1,16,10.6,2.15,2.15,0,0,1,13.867,12.764Z" transform="translate(4 5)" fill="none" stroke="#000" stroke-linecap="round" stroke-linejoin="round" stroke-width="1.5"/>
  <path id="Vector-3" data-name="Vector" d="M4.265,11.833V3.5m0,0V2a2,2,0,0,1,2-2H14a2,2,0,0,1,2,2V3.5M4.265,3.5H16m0,0v7.1" transform="translate(4 5)" fill="none" stroke="#000" stroke-linecap="round" stroke-linejoin="round" stroke-width="1.5"/>
</svg>
