<svg id="Xnix_Line_Setting" data-name="Xnix/Line/Setting" xmlns="http://www.w3.org/2000/svg" width="24" height="24" viewBox="0 0 24 24">
  <path id="Vector" d="M6.567,3.889A2.447,2.447,0,0,0,6.247.732,2.627,2.627,0,0,0,3,.421a2.517,2.517,0,0,0-.947,1.122,2.435,2.435,0,0,0-.146,1.444,2.479,2.479,0,0,0,.7,1.28,2.6,2.6,0,0,0,1.317.684A2.64,2.64,0,0,0,5.413,4.81,2.557,2.557,0,0,0,6.567,3.889Z" transform="translate(5 5.5)" fill="none" stroke="#000" stroke-linecap="round" stroke-linejoin="round" stroke-width="1.5"/>
  <path id="Vector-2" data-name="Vector" d="M7.433,11.889a2.447,2.447,0,0,1,.32-3.157A2.627,2.627,0,0,1,11,8.421a2.517,2.517,0,0,1,.947,1.122,2.435,2.435,0,0,1,.146,1.444,2.479,2.479,0,0,1-.7,1.28,2.6,2.6,0,0,1-1.317.684,2.64,2.64,0,0,1-1.486-.142A2.557,2.557,0,0,1,7.433,11.889Z" transform="translate(5 5.5)" fill="none" stroke="#000" stroke-linecap="round" stroke-linejoin="round" stroke-width="1.5"/>
  <path id="Vector-3" data-name="Vector" d="M7,2.5h7M1.857,2.5H0m7,8H0m12.143,0H14" transform="translate(5 5.5)" fill="none" stroke="#000" stroke-linecap="round" stroke-linejoin="round" stroke-width="1.5"/>
</svg>
