<svg id="Xnix_Line_Compact_dish" data-name="Xnix/Line/Compact dish" xmlns="http://www.w3.org/2000/svg" width="24" height="24" viewBox="0 0 24 24">
  <g id="Group_8545" data-name="Group 8545">
    <path id="Vector" d="M1.18,3.111a7,7,0,0,0,9.51,9.838q.1-.063.2-.129A7,7,0,0,0,8.561.176L8.366.135A7,7,0,0,0,1.18,3.111Z" transform="translate(5 5)" fill="none" stroke="#000" stroke-linecap="round" stroke-linejoin="round" stroke-width="1.5"/>
    <path id="Vector-2" data-name="Vector" d="M5.337,5.889A2,2,0,0,0,8.054,8.7l.057-.037A2,2,0,0,0,7.446,5.05L7.39,5.038a2,2,0,0,0-2.053.85Z" transform="translate(5 5)" fill="none" stroke="#000" stroke-linecap="round" stroke-linejoin="round" stroke-width="1.5"/>
    <path id="Vector-3" data-name="Vector" d="M3,5.5a4.132,4.132,0,0,1,3.5-3" transform="translate(5 5)" fill="none" stroke="#000" stroke-linecap="round" stroke-width="1.5"/>
  </g>
</svg>
