<svg id="Xnix_Line_Vol_mute" data-name="Xnix/Line/Vol mute" xmlns="http://www.w3.org/2000/svg" width="24" height="24" viewBox="0 0 24 24">
  <path id="Vector" d="M1.482,7.98A1.588,1.588,0,0,1,0,6.3V3.7A1.588,1.588,0,0,1,1.482,2.02H2.588a1.375,1.375,0,0,0,.9-.343L5.031.346A1.477,1.477,0,0,1,7.412,1.679V8.321A1.477,1.477,0,0,1,5.031,9.654L3.486,8.323a1.375,1.375,0,0,0-.9-.343Z" transform="translate(5 7)" fill="none" stroke="#fff" stroke-linecap="round" stroke-linejoin="round" stroke-width="1.5"/>
  <path id="Vector-2" data-name="Vector" d="M10,7l2-2m0,0,2-2M12,5l2,2M12,5,10,3" transform="translate(5 7)" fill="none" stroke="#fff" stroke-linecap="round" stroke-linejoin="round" stroke-width="1.5"/>
</svg>
