<svg id="Xnix_Line_Video_Player" data-name="Xnix/Line/Video Player" xmlns="http://www.w3.org/2000/svg" width="24" height="24" viewBox="0 0 24 24">
  <path id="Vector" d="M14,4v6a4,4,0,0,1-4,4H4a4,4,0,0,1-4-4V4A4,4,0,0,1,4,0h6A4,4,0,0,1,14,4Z" transform="translate(5 5)" fill="none" stroke="#000" stroke-linecap="round" stroke-linejoin="round" stroke-width="1.5"/>
  <path id="Vector-2" data-name="Vector" d="M6.4,7.117,8.3,8.549a.471.471,0,0,1,0,.768L6.4,10.883a.559.559,0,0,1-.9-.384v-3A.559.559,0,0,1,6.4,7.117Z" transform="translate(5 5)" fill="none" stroke="#000" stroke-linecap="round" stroke-linejoin="round" stroke-width="1.5"/>
  <path id="Vector-3" data-name="Vector" d="M14,4H7M0,4H7M7,4V0" transform="translate(5 5)" fill="none" stroke="#000" stroke-linecap="round" stroke-linejoin="round" stroke-width="1.5"/>
</svg>
