<svg id="Xnix_Line_Speaker" data-name="Xnix/Line/Speaker" xmlns="http://www.w3.org/2000/svg" width="24" height="24" viewBox="0 0 24 24">
  <path id="Vector" d="M0,2.571V15.429A2.461,2.461,0,0,0,2.333,18h9.333A2.461,2.461,0,0,0,14,15.429V2.571A2.461,2.461,0,0,0,11.667,0H2.333A2.461,2.461,0,0,0,0,2.571Z" transform="translate(5 3)" fill="none" stroke="#000" stroke-linecap="round" stroke-linejoin="round" stroke-width="1.5"/>
  <path id="Vector-2" data-name="Vector" d="M4.506,10.333A3,3,0,0,0,8.581,14.55l.086-.055a3,3,0,0,0-1-5.419l-.084-.018a3,3,0,0,0-3.08,1.276Z" transform="translate(5 3)" fill="none" stroke="#000" stroke-linecap="round" stroke-linejoin="round" stroke-width="1.5"/>
  <path id="Vector-3" data-name="Vector" d="M5.753,3.667A1.5,1.5,0,0,0,7.791,5.775l.043-.028a1.5,1.5,0,0,0-.5-2.709l-.042-.009a1.5,1.5,0,0,0-1.54.638Z" transform="translate(5 3)" fill="none" stroke="#000" stroke-linecap="round" stroke-linejoin="round" stroke-width="1.5"/>
</svg>
