<svg id="Xnix_Line_Play" data-name="Xnix/Line/Play" xmlns="http://www.w3.org/2000/svg" width="24" height="24" viewBox="0 0 24 24">
  <path id="Vector" d="M6.008,4.175,9.169,6.323a.667.667,0,0,1,0,1.152L6.008,9.825c-.6.407-1.508.06-1.508-.576v-4.5C4.5,4.116,5.409,3.768,6.008,4.175Z" transform="translate(5 5)" fill="none" stroke="#000" stroke-linecap="round" stroke-linejoin="round" stroke-width="1.5"/>
  <path id="Vector-2" data-name="Vector" d="M0,6V8a6,6,0,0,0,6,6H8a6,6,0,0,0,6-6V6A6,6,0,0,0,8,0H6A6,6,0,0,0,0,6Z" transform="translate(5 5)" fill="none" stroke="#000" stroke-linecap="round" stroke-linejoin="round" stroke-width="1.5"/>
</svg>
