<svg id="Xnix_Line_Compress-arrows-alt" data-name="Xnix/Line/Compress-arrows-alt" xmlns="http://www.w3.org/2000/svg" width="24" height="24" viewBox="0 0 24 24">
  <path id="Vector" d="M3.629,7.011l3.034.367a.63.63,0,0,0,.715-.715L7.011,3.629a.713.713,0,0,0-1.177-.462L4.5,4.5,3.166,5.834A.713.713,0,0,0,3.629,7.011Z" transform="translate(3 4)" fill="none" stroke="#000" stroke-linecap="round" stroke-linejoin="round" stroke-width="1.5"/>
  <path id="Vector-2" data-name="Vector" d="M14.371,10.989l-3.034-.367a.63.63,0,0,0-.715.715l.367,3.034a.713.713,0,0,0,1.177.462L13.5,13.5l1.334-1.334A.713.713,0,0,0,14.371,10.989Z" transform="translate(3 4)" fill="none" stroke="#000" stroke-linecap="round" stroke-linejoin="round" stroke-width="1.5"/>
  <path id="Vector-3" data-name="Vector" d="M7.011,14.371l.367-3.034a.63.63,0,0,0-.715-.715l-3.034.367a.713.713,0,0,0-.462,1.177L4.5,13.5l1.334,1.334A.713.713,0,0,0,7.011,14.371Z" transform="translate(3 4)" fill="none" stroke="#000" stroke-linecap="round" stroke-linejoin="round" stroke-width="1.5"/>
  <path id="Vector-4" data-name="Vector" d="M10.989,3.629l-.367,3.034a.63.63,0,0,0,.715.715l3.034-.367a.713.713,0,0,0,.462-1.177L13.5,4.5,12.166,3.166A.713.713,0,0,0,10.989,3.629Z" transform="translate(3 4)" fill="none" stroke="#000" stroke-linecap="round" stroke-linejoin="round" stroke-width="1.5"/>
  <path id="Vector-5" data-name="Vector" d="M4.5,4.5,0,0M13.5,13.5,18,18M4.5,13.5,0,18M13.5,4.5,18,0" transform="translate(3 4)" fill="none" stroke="#000" stroke-linecap="round" stroke-linejoin="round" stroke-width="1.5"/>
</svg>
