<svg id="Xnix_Line_Headphone" data-name="Xnix/Line/Headphone" xmlns="http://www.w3.org/2000/svg" width="24" height="24" viewBox="0 0 24 24">
  <path id="Vector" d="M2,14a2,2,0,0,1-2-2V9A2,2,0,1,1,4,9v3A2,2,0,0,1,2,14Z" transform="translate(5 5)" fill="none" stroke="#000" stroke-linecap="round" stroke-linejoin="round" stroke-width="1.5"/>
  <path id="Vector-2" data-name="Vector" d="M12,14a2,2,0,0,1-2-2V9a2,2,0,0,1,4,0v3A2,2,0,0,1,12,14Z" transform="translate(5 5)" fill="none" stroke="#000" stroke-linecap="round" stroke-linejoin="round" stroke-width="1.5"/>
  <path id="Vector-3" data-name="Vector" d="M14,9V7A7,7,0,1,0,0,7V9" transform="translate(5 5)" fill="none" stroke="#000" stroke-linecap="round" stroke-linejoin="round" stroke-width="1.5"/>
</svg>
