<svg id="Xnix_Line_Rotate" data-name="Xnix/Line/Rotate" xmlns="http://www.w3.org/2000/svg" width="24" height="24" viewBox="0 0 24 24">
  <path id="Vector" d="M13.29,5a7.047,7.047,0,0,0-1.7-2.95A6.725,6.725,0,0,0,8.111.135a6.6,6.6,0,0,0-3.921.4A6.837,6.837,0,0,0,1.144,3.111a7.168,7.168,0,0,0,.844,8.839,6.63,6.63,0,0,0,8.569.871,6.958,6.958,0,0,0,2.5-3.142M13.29,5,14,2.268M13.29,5l-2.649-.732" transform="translate(5 5)" fill="none" stroke="#000" stroke-linecap="round" stroke-linejoin="round" stroke-width="1.5"/>
</svg>
