<svg id="Xnix_Line_headset" data-name="Xnix/Line/headset" xmlns="http://www.w3.org/2000/svg" width="24" height="24" viewBox="0 0 24 24">
  <path id="Vector" d="M9.581,17.39a1.077,1.077,0,0,1-.905,1.217L7,18.97a1.008,1.008,0,1,1-.423-1.952l1.675-.362A1.079,1.079,0,0,1,9.581,17.39Z" transform="translate(5 3)" fill="none" stroke="#000" stroke-linecap="round" stroke-linejoin="round" stroke-width="1.5"/>
  <path id="Vector-2" data-name="Vector" d="M2,13.978a2,2,0,0,1-2-2v-3a2,2,0,0,1,4,0v3A2,2,0,0,1,2,13.978Z" transform="translate(5 3)" fill="none" stroke="#000" stroke-linecap="round" stroke-linejoin="round" stroke-width="1.5"/>
  <path id="Vector-3" data-name="Vector" d="M12,13.978a2,2,0,0,1-2-2v-3a2,2,0,0,1,4,0v3A2,2,0,0,1,12,13.978Z" transform="translate(5 3)" fill="none" stroke="#000" stroke-linecap="round" stroke-linejoin="round" stroke-width="1.5"/>
  <path id="Vector-4" data-name="Vector" d="M14,8.986v-2a7,7,0,0,0-14,0v2m14,3a6.812,6.812,0,0,1-5.325,6.627" transform="translate(5 3)" fill="none" stroke="#000" stroke-linecap="round" stroke-linejoin="round" stroke-width="1.5"/>
</svg>
