<svg id="Xnix_Line_hdr" data-name="Xnix/Line/hdr" xmlns="http://www.w3.org/2000/svg" width="24" height="24" viewBox="0 0 24 24">
  <path id="Vector" d="M9,4.5H7.375v5H9a2.5,2.5,0,0,0,0-5Z" transform="translate(3 5)" fill="none" stroke="#000" stroke-linecap="round" stroke-linejoin="round" stroke-width="1.5"/>
  <path id="Vector-2" data-name="Vector" d="M14.037,4.5h-.975V7.192h.975A1.408,1.408,0,0,0,15.5,5.846,1.408,1.408,0,0,0,14.037,4.5Z" transform="translate(3 5)" fill="none" stroke="#000" stroke-linecap="round" stroke-linejoin="round" stroke-width="1.5"/>
  <path id="Vector-3" data-name="Vector" d="M4,0A4,4,0,0,0,0,4M14,0a4,4,0,0,1,4,4M14,14a4,4,0,0,0,4-4M4,14a4,4,0,0,1-4-4m13.063-.5V7.192L15.5,9.5m-13,0V7m0,0V4.5M2.5,7H5.75m0,2.5V7m0,0V4.5" transform="translate(3 5)" fill="none" stroke="#000" stroke-linecap="round" stroke-linejoin="round" stroke-width="1.5"/>
</svg>
