<svg id="Xnix_Line_Reload" data-name="Xnix/Line/Reload" xmlns="http://www.w3.org/2000/svg" width="24" height="24" viewBox="0 0 24 24">
  <path id="Vector" d="M0,7A7.158,7.158,0,0,1,1.144,3.111,6.837,6.837,0,0,1,4.19.533a6.6,6.6,0,0,1,3.921-.4A6.725,6.725,0,0,1,11.585,2.05,7.047,7.047,0,0,1,13.29,5m0,0L14,2.268M13.29,5l-2.649-.732M14,7a7.158,7.158,0,0,1-1.144,3.889A6.837,6.837,0,0,1,9.81,13.467a6.6,6.6,0,0,1-3.921.4A6.725,6.725,0,0,1,2.415,11.95,7.047,7.047,0,0,1,.71,9m0,0L0,11.732M.71,9l2.649.732" transform="translate(5 5)" fill="none" stroke="#000" stroke-linecap="round" stroke-linejoin="round" stroke-width="1.5"/>
</svg>
